<svg width="1920" height="960" viewBox="0 0 1920 960" fill="none" xmlns="http://www.w3.org/2000/svg">
<g clip-path="url(#clip0_9_36)">
<rect width="1920" height="1080" transform="translate(0 -60)" fill="url(#paint0_linear_9_36)"/>
<path d="M1146.5 396.58C1114 379.716 1078 407.675 1077 409.894V413H1606C1600.4 383.533 1559.33 387.113 1539.5 392.586C1537.5 382.823 1526 353.089 1495 352.645C1470.2 352.29 1457.33 373.799 1454 384.598C1441.6 359.036 1417.5 363.592 1407 369.065C1405.17 356.343 1390.4 330.722 1346 330.012C1301.6 329.302 1281.17 360.486 1276.5 376.166C1245.7 362.32 1222.67 380.16 1215 390.81C1180.6 359.213 1155 381.491 1146.5 396.58Z" fill="url(#paint1_linear_9_36)" fill-opacity="0.8"/>
<path d="M1853.63 158.841C1890.5 141.865 1935.24 169.13 1953 184.885V209H1172C1190.24 193.084 1270.89 153.537 1313.61 177.651C1356.33 201.766 1360.17 194.049 1385.61 177.651C1411.05 161.253 1444.17 160.289 1464.33 166.558C1484.5 172.828 1509.94 182.474 1522.42 163.665C1554.1 109.166 1593.94 103.861 1612.66 105.307C1627.64 106.465 1635.22 102.253 1637.14 100.002C1644.82 91.8033 1657.3 59.9712 1716.35 59.0066C1795.46 58.2349 1840.83 125.241 1853.63 158.841Z" fill="url(#paint2_linear_9_36)" fill-opacity="0.7"/>
<path d="M907.5 89.1178H481C495 58.7168 524.5 54.1181 537.5 55.6189C578.7 -23.1811 634.667 5.45205 657.5 29.6186C687.5 26.8186 711.667 55.7853 720 70.6187C753.2 47.4187 793.833 65.2848 810 77.1178C849.6 53.5178 891.5 75.2845 907.5 89.1178Z" fill="url(#paint3_linear_9_36)" fill-opacity="0.4"/>
<g filter="url(#filter0_f_9_36)">
<circle cx="965" cy="446" r="200" fill="url(#paint4_radial_9_36)" fill-opacity="0.8"/>
</g>
<circle cx="965" cy="446" r="200" fill="url(#paint5_radial_9_36)" fill-opacity="0.8"/>
<path d="M116.5 129.406C87.7 82.6062 12.1667 85.9062 -22 93.4062V329.406H849.5C827.5 295.806 758.333 297.073 726.5 301.906C733.333 311.073 742.6 323.606 725 300.406C707.4 277.206 653.333 279.74 628.5 283.906C596.1 236.706 537.333 234.906 512 239.906C515.2 201.906 484.667 196.073 469 197.906C451 151.906 412.5 154.073 395.5 160.906C312.3 95.7063 215.5 121.406 177.5 142.406C155.5 119.606 127.667 124.24 116.5 129.406Z" fill="url(#paint6_linear_9_36)" fill-opacity="0.8"/>
<path d="M380.5 329.004C292.1 328.024 90 495.451 0 579.287V1097H1846V450.675C1735.5 433.663 1491.4 405.192 1399 427.403C1283.5 455.167 1288.5 430.261 1252 434.344C1215.5 438.427 1223.5 454.758 1139.5 461.291C1055.5 467.824 1003.5 533.293 942.5 543.5C881.5 553.707 807.5 429.036 741 428.219C674.5 427.403 652 361.26 610.5 378C516 418.421 491 330.229 380.5 329.004Z" fill="url(#paint7_linear_9_36)" fill-opacity="0.9"/>
<path d="M364.5 529.556C297.5 562.463 169.5 710.969 153 730.798V1097H1882V490.742C1708 516.899 1611 369.237 1512 380.628C1466 386.535 1429.5 434.63 1400.5 440.959C1371.5 447.287 1362.5 416.911 1330.5 419.864C1298.5 422.817 1273.5 460.788 1250 486.945C1226.5 513.102 1139.5 577.23 1053.5 590.308C967.5 603.387 879.5 559.51 816.5 515.634C753.5 471.757 700 500.867 666 506.774C632 512.68 596.5 462.475 541.5 465.85C486.5 469.225 431.5 496.648 364.5 529.556Z" fill="url(#paint8_linear_9_36)" fill-opacity="0.7"/>
<path d="M1771 481.724C1886.6 408.524 1970.5 464.557 1998 501.724V1186.22L1429 1179.22L1172 684C1172 684 1336 625.487 1429 630.725C1522 635.962 1583.4 630.625 1603 592.225C1645.5 515.725 1626.5 573.224 1771 481.724Z" fill="url(#paint9_linear_9_36)"/>
<path d="M-166 676.53C-145.073 667.531 106.054 375.064 238.763 380.063C371.473 385.063 336.764 468.053 535.318 465.553C645.058 465.553 735.403 543.044 754.799 583.54C772.486 620.467 990.508 1053.58 1177.03 1093.98H1230C1212.78 1098.12 1195.05 1097.89 1177.03 1093.98H-166V676.53Z" fill="url(#paint10_linear_9_36)"/>
<path d="M234 499.961C131.2 539.161 4.5 672.961 -46 734.961V1427.46C228.167 1513.13 781.3 1595.86 800.5 1241.46C824.5 798.461 569.5 570.461 469 536.961C368.5 503.461 362.5 450.961 234 499.961Z" fill="url(#paint11_linear_9_36)"/>
<path d="M653.875 647.391C489.452 655.446 550.924 1243.52 547.425 1262H1454L1418.02 636.965C1314.07 670.61 1074.78 716.386 949.237 630.331C792.311 522.763 818.298 639.335 653.875 647.391Z" fill="url(#paint12_linear_9_36)"/>
<path d="M1515.4 535.343C1732.47 575.388 1824 1203.69 1824 1229.01V1403L256.494 1364.34C230.485 1297.75 286.441 1253.68 356.063 1187.76C443.091 1105.37 1130.81 593.062 1294.37 611.474C1396.9 623.016 1417.87 516.01 1515.4 535.343Z" fill="url(#paint13_linear_9_36)"/>
<mask id="mask0_9_36" style="mask-type:alpha" maskUnits="userSpaceOnUse" x="666" y="377" width="606" height="238">
<ellipse cx="969" cy="496" rx="303" ry="119" fill="#E7CE9F"/>
</mask>
<g mask="url(#mask0_9_36)">
<g filter="url(#filter1_f_9_36)">
<path d="M561.166 698.176H589.159C589.159 698.435 589.094 698.695 588.965 698.954C588.965 699.084 588.965 699.278 588.965 699.538C588.835 700.056 588.706 700.64 588.576 701.288C588.576 701.937 588.641 702.585 588.77 703.233C588.77 703.882 588.77 704.595 588.77 705.373C588.9 706.021 589.03 706.735 589.159 707.513C589.937 710.884 592.075 713.997 595.574 716.85C599.203 719.573 605.294 720.934 613.847 720.934C614.884 720.934 615.921 720.934 616.958 720.934C618.124 720.805 619.226 720.74 620.262 720.74C626.224 720.221 631.796 718.665 636.98 716.071C642.294 713.478 645.599 709.069 646.894 702.844C647.024 702.196 647.089 701.677 647.089 701.288C647.218 700.77 647.283 700.251 647.283 699.732C647.154 695.842 645.275 692.989 641.646 691.173C638.017 689.228 633.352 687.542 627.649 686.116C627.261 685.986 626.872 685.921 626.483 685.921C626.094 685.792 625.705 685.662 625.317 685.532L611.126 681.837C610.867 681.966 610.607 682.031 610.348 682.031C610.219 681.901 610.089 681.772 609.959 681.642C600.758 679.438 592.464 676.52 585.077 672.889C577.82 669.128 574.256 661.996 574.385 651.492C574.385 649.936 574.45 648.315 574.58 646.629C574.839 644.814 575.163 642.933 575.552 640.988C576.07 638.654 576.848 636.125 577.884 633.402C578.921 630.549 580.347 627.631 582.161 624.649C586.179 618.035 592.594 611.94 601.406 606.364C610.219 600.788 622.53 598 638.341 598C653.633 598 664.584 600.983 671.194 606.948C677.803 612.913 681.821 619.462 683.246 626.594C683.506 627.891 683.7 629.187 683.829 630.484C683.959 631.781 684.024 633.078 684.024 634.375C684.024 635.931 683.894 637.422 683.635 638.848C683.506 640.275 683.311 641.701 683.052 643.128L655.059 642.933C655.059 642.804 655.059 642.609 655.059 642.35C655.059 642.09 655.124 641.831 655.253 641.572C655.253 641.183 655.253 640.858 655.253 640.599C655.253 640.34 655.253 640.016 655.253 639.627C655.253 638.719 655.189 637.811 655.059 636.903C654.929 635.866 654.735 634.893 654.476 633.986C653.569 631.003 651.43 628.28 648.061 625.816C644.691 623.352 638.989 622.12 630.954 622.12C629.788 622.12 628.621 622.185 627.455 622.315C626.289 622.315 625.122 622.444 623.956 622.704C619.29 623.482 614.884 625.103 610.737 627.566C606.72 630.03 604.192 633.791 603.156 638.848C603.026 639.497 602.896 640.145 602.767 640.794C602.767 641.312 602.767 641.831 602.767 642.35C602.767 645.332 603.609 647.602 605.294 649.158C606.979 650.584 608.858 651.622 610.931 652.27C611.579 652.529 612.227 652.789 612.875 653.048C613.523 653.178 614.171 653.308 614.819 653.437L647.089 661.607C654.994 663.811 661.863 666.924 667.695 670.944C673.656 674.834 676.637 681.253 676.637 690.201C676.637 691.498 676.572 692.924 676.443 694.48C676.313 696.036 676.054 697.657 675.665 699.343C673.332 710.366 668.991 718.989 662.64 725.214C656.29 731.309 649.551 735.847 642.423 738.83C636.073 741.423 629.917 743.044 623.956 743.693C618.124 744.471 613.783 744.86 610.931 744.86C592.788 744.86 580.152 741.812 573.024 735.718C565.897 729.493 561.75 722.685 560.583 715.293C560.324 714.126 560.13 713.024 560 711.987C560 710.82 560 709.717 560 708.68C560 706.864 560.13 705.114 560.389 703.428C560.648 701.612 560.907 699.927 561.166 698.37V698.176Z" fill="#F8E7C6" fill-opacity="0.6"/>
<path d="M830.402 601.501L810.962 692.34C807.074 710.884 799.104 724.306 787.052 732.605C774.999 740.775 760.16 744.86 742.535 744.86C740.073 744.86 737.416 744.73 734.565 744.471C731.714 744.212 728.863 743.758 726.012 743.109C721.346 741.942 716.875 740.256 712.598 738.052C708.322 735.718 704.693 732.411 701.712 728.132C700.028 725.408 698.732 722.426 697.824 719.184C697.047 715.812 696.658 712.246 696.658 708.485C696.658 706.281 696.723 704.011 696.852 701.677C697.112 699.213 697.5 696.75 698.019 694.286L717.847 601.501H747.589L728.344 692.146C727.956 693.961 727.696 695.582 727.567 697.009C727.437 698.435 727.372 699.862 727.372 701.288C727.372 707.902 729.252 712.765 733.01 715.877C736.898 718.86 741.628 720.351 747.201 720.351C757.18 720.351 764.891 718.017 770.334 713.348C775.777 708.68 779.341 702.131 781.025 693.702L800.659 601.501H830.402Z" fill="#F8E7C6" fill-opacity="0.6"/>
<path d="M923.26 698.76L944.06 601.501H971.276L941.533 741.164H912.374L876.605 641.572H876.217L855.028 741.164H827.812L857.555 601.501H888.269L922.871 698.76H923.26Z" fill="#F8E7C6" fill-opacity="0.6"/>
<path d="M971.408 698.176H999.401C999.401 698.435 999.336 698.695 999.206 698.954C999.206 699.084 999.206 699.278 999.206 699.538C999.077 700.056 998.947 700.64 998.817 701.288C998.817 701.937 998.882 702.585 999.012 703.233C999.012 703.882 999.012 704.595 999.012 705.373C999.141 706.021 999.271 706.735 999.401 707.513C1000.18 710.884 1002.32 713.997 1005.82 716.85C1009.44 719.573 1015.54 720.934 1024.09 720.934C1025.13 720.934 1026.16 720.934 1027.2 720.934C1028.37 720.805 1029.47 720.74 1030.5 720.74C1036.47 720.221 1042.04 718.665 1047.22 716.071C1052.54 713.478 1055.84 709.069 1057.14 702.844C1057.27 702.196 1057.33 701.677 1057.33 701.288C1057.46 700.77 1057.52 700.251 1057.52 699.732C1057.4 695.842 1055.52 692.989 1051.89 691.173C1048.26 689.228 1043.59 687.542 1037.89 686.116C1037.5 685.986 1037.11 685.921 1036.72 685.921C1036.34 685.792 1035.95 685.662 1035.56 685.532L1021.37 681.837C1021.11 681.966 1020.85 682.031 1020.59 682.031C1020.46 681.901 1020.33 681.772 1020.2 681.642C1011 679.438 1002.71 676.52 995.318 672.889C988.061 669.128 984.497 661.996 984.627 651.492C984.627 649.936 984.691 648.315 984.821 646.629C985.08 644.814 985.404 642.933 985.793 640.988C986.311 638.654 987.089 636.125 988.126 633.402C989.163 630.549 990.588 627.631 992.402 624.649C996.42 618.035 1002.83 611.94 1011.65 606.364C1020.46 600.788 1032.77 598 1048.58 598C1063.87 598 1074.83 600.983 1081.44 606.948C1088.04 612.913 1092.06 619.462 1093.49 626.594C1093.75 627.891 1093.94 629.187 1094.07 630.484C1094.2 631.781 1094.27 633.078 1094.27 634.375C1094.27 635.931 1094.14 637.422 1093.88 638.848C1093.75 640.275 1093.55 641.701 1093.29 643.128L1065.3 642.933C1065.3 642.804 1065.3 642.609 1065.3 642.35C1065.3 642.09 1065.37 641.831 1065.49 641.572C1065.49 641.183 1065.49 640.858 1065.49 640.599C1065.49 640.34 1065.49 640.016 1065.49 639.627C1065.49 638.719 1065.43 637.811 1065.3 636.903C1065.17 635.866 1064.98 634.893 1064.72 633.986C1063.81 631.003 1061.67 628.28 1058.3 625.816C1054.93 623.352 1049.23 622.12 1041.2 622.12C1040.03 622.12 1038.86 622.185 1037.7 622.315C1036.53 622.315 1035.36 622.444 1034.2 622.704C1029.53 623.482 1025.13 625.103 1020.98 627.566C1016.96 630.03 1014.43 633.791 1013.4 638.848C1013.27 639.497 1013.14 640.145 1013.01 640.794C1013.01 641.312 1013.01 641.831 1013.01 642.35C1013.01 645.332 1013.85 647.602 1015.54 649.158C1017.22 650.584 1019.1 651.622 1021.17 652.27C1021.82 652.529 1022.47 652.789 1023.12 653.048C1023.76 653.178 1024.41 653.308 1025.06 653.437L1057.33 661.607C1065.24 663.811 1072.1 666.924 1077.94 670.944C1083.9 674.834 1086.88 681.253 1086.88 690.201C1086.88 691.498 1086.81 692.924 1086.68 694.48C1086.55 696.036 1086.3 697.657 1085.91 699.343C1083.57 710.366 1079.23 718.989 1072.88 725.214C1066.53 731.309 1059.79 735.847 1052.66 738.83C1046.31 741.423 1040.16 743.044 1034.2 743.693C1028.37 744.471 1024.02 744.86 1021.17 744.86C1003.03 744.86 990.394 741.812 983.266 735.718C976.138 729.493 971.991 722.685 970.825 715.293C970.565 714.126 970.371 713.024 970.241 711.987C970.241 710.82 970.241 709.717 970.241 708.68C970.241 706.864 970.371 705.114 970.63 703.428C970.889 701.612 971.149 699.927 971.408 698.37V698.176Z" fill="#F8E7C6" fill-opacity="0.6"/>
<path d="M1231.51 601.501L1226.26 626.205H1152.19L1145.97 655.577H1214.01L1208.76 680.28H1140.72L1132.95 716.461H1210.32L1205.07 741.164H1099.12L1128.87 601.501H1231.51Z" fill="#F8E7C6" fill-opacity="0.6"/>
<path d="M1312.57 626.205L1288.07 741.164H1258.91L1283.41 626.205H1241.22L1246.47 601.501H1360L1354.75 626.205H1312.57Z" fill="#F8E7C6" fill-opacity="0.6"/>
</g>
</g>
<path d="M838.42 794.067C698.939 827.919 241.999 1098.74 238 1103.37V1299L1418.34 1287.6C1431.84 1281.66 1479.24 1235.57 1560.82 1098.74C1662.81 927.694 1283.36 706.051 1139.38 719.592C995.399 733.133 977.902 760.214 838.42 794.067Z" fill="url(#paint14_linear_9_36)"/>
<path d="M1926.44 586.284C1946.5 600.995 2055.17 702.743 2107 751.778V1422.94C1893.01 1450.52 1379.09 1486.57 1035.36 1410.07C605.701 1314.45 844.772 1069.89 1149.04 854.748C1453.32 639.606 1371.4 803.261 1491.77 722.353C1612.14 641.445 1593.75 757.291 1695.73 645.123C1797.71 532.955 1786.01 634.094 1829.48 577.09C1872.94 520.087 1901.37 567.896 1926.44 586.284Z" fill="url(#paint15_linear_9_36)"/>
<path d="M40.3087 480C-358.562 480 -371.428 667.599 -399 678.634V1289.25C36.6324 1296.61 926.646 1306.91 1001.64 1289.25C1095.38 1267.18 1108.25 985.782 1065.97 926.928C1023.7 868.073 999.803 912.214 966.717 873.591C933.631 834.967 889.516 862.556 869.297 836.807C830.697 788.987 784.744 822.093 764.525 794.505C711.219 719.098 674.457 757.721 637.695 722.776C600.933 687.831 580.713 711.741 560.494 706.223C540.275 700.706 551.304 687.831 529.246 678.635C507.189 669.439 448.369 700.706 406.093 638.173C363.816 575.64 334.406 595.871 292.13 592.193C249.853 588.514 180.005 537.016 135.89 527.82C91.7758 518.624 82.5852 480 40.3087 480Z" fill="url(#paint16_linear_9_36)"/>
<path d="M597.67 802.085C596.984 800.852 595.798 798.731 595.256 797.764C601.594 795.627 606.072 796.77 610.123 803.297C606.077 802.899 602.073 802.511 597.67 802.085ZM504.56 923.486C508.973 923.896 512.855 924.395 516.748 924.581C520.635 924.762 524.533 924.618 530.004 924.618C520.151 930.588 510.994 929.966 504.56 923.486ZM448.157 844.462C451.214 848.13 453.224 850.544 456.021 853.903C447.226 852.043 439.463 850.395 431.704 848.752C431.699 847.801 431.699 846.854 431.694 845.903C441.398 850.453 446.577 843.389 452.565 838.557C454.788 840.322 456.691 841.826 460.02 844.462C455.495 844.462 452.714 844.462 448.157 844.462ZM407.616 852.277C403.819 851.479 400.012 850.687 394.615 849.56C398.613 846.945 400.804 845.515 403.256 843.91C405.048 846.147 406.616 848.109 408.19 850.071C407.999 850.804 407.813 851.538 407.616 852.277ZM334.011 929.03C338.472 930.099 342.928 931.167 348.464 932.496C341.349 938.471 337.76 933.331 334.011 929.03ZM287.222 876.065C287.849 877.207 288.498 878.403 289.742 880.684C282.016 880.684 275.326 880.684 268.626 880.684C268.174 880.046 267.717 879.408 267.26 878.77C271.248 877.941 275.241 877.106 279.586 876.203C276.039 872.588 272.886 869.377 269.727 866.167C270.078 865.385 270.424 864.604 270.775 863.822C279.027 865.587 285.217 878.994 295.916 867.017C295.953 868.266 295.996 869.51 296.038 870.754C293.103 872.524 290.173 874.289 287.222 876.065ZM269.732 900.889C277.081 899.815 284.324 898.757 291.571 897.699C291.731 898.593 291.885 899.486 292.045 900.379C285.525 905.375 276.608 905.577 269.732 900.889ZM170.13 887.137C169.513 886.202 168.896 885.266 168.279 884.33C172.788 881.566 177.292 878.797 181.796 876.033C182.131 876.713 182.461 877.388 182.791 878.069C178.574 881.088 174.352 884.113 170.13 887.137ZM91.5525 879.041C97.2316 877.76 101.496 876.798 107.282 875.496C109.233 876.452 113.003 878.302 116.742 880.131C114.46 883.698 104.277 883.804 91.5525 879.041ZM106.872 863.785C107.798 864.949 109.185 866.687 110.988 868.952C104.198 868.952 98.1888 868.952 92.1747 868.952C92.1534 868.367 92.1268 867.793 92.1056 867.214C96.8169 866.119 101.528 865.024 106.872 863.785ZM689.748 999.831C691.923 997.444 694.215 995.589 695.597 993.207C696.741 991.23 696.805 988.625 697.342 986.302C695.427 986.026 693.513 985.59 691.588 985.516C688.286 985.388 684.973 985.484 681.666 985.484C681.437 984.516 681.203 983.549 680.969 982.586C687.026 979.705 693.088 976.819 701 973.056C693.369 971.184 687.669 969.792 681.431 968.266C685.919 962.578 697.267 966.576 698.591 956.641C693.758 955.567 689.137 954.536 684.005 953.398C687.93 950.65 691.226 948.343 695.56 945.307C691.301 944.669 688.116 944.186 684.271 943.612C685.813 940.699 687.206 938.078 689.307 934.123C684.909 934.75 682.048 935.165 679.124 935.585C679.757 932.619 680.294 930.115 680.512 929.089C682.654 923.322 684.271 918.963 685.904 914.561C683.021 914.2 680.336 914.332 678.087 913.402C676.944 912.924 675.721 910.335 676.029 909.065C677.284 903.839 679.118 898.752 680.464 894.473C677.13 892.293 673.934 890.215 671.27 888.477C672.498 884.012 673.737 879.52 675.226 874.124C671.014 875.352 668.212 876.171 664.4 877.282C665.713 872.636 666.723 869.064 667.824 865.151C664.415 864.614 661.267 864.12 657.635 863.546C661.842 857.045 665.591 851.24 669.935 844.521C664.921 842.809 662.751 835.835 655.221 839.386C653.291 840.295 649.622 837.525 646.474 835.027C657.487 834.841 663.655 829.759 665.054 817.528C661.342 816.613 656.173 815.725 651.302 813.998C647.389 812.61 643.831 810.208 640.12 808.257C640.348 807.598 640.582 806.939 640.811 806.279C644.469 806.721 648.133 807.167 652.063 807.64C655.237 803.297 658.758 798.486 662.698 793.112C658.476 792.32 655.2 788.493 650.202 792.538C649.106 793.426 644.156 789.562 639.327 787.015C645.235 786.106 649.351 786.473 652.228 784.761C655.477 782.832 657.614 779.031 661.533 774.56C654.413 772.928 648.394 771.557 642.374 770.18C642.209 770.877 642.039 771.573 641.874 772.269C640.279 770.053 638.684 767.836 636.754 765.152C642.151 764.578 647.671 763.987 653.578 763.355C649.016 755.413 645.379 749.077 641.741 742.756C651.855 736.967 644.039 728.632 646.118 721.903C645.4 721.568 644.687 721.228 643.969 720.893C641.029 725.927 638.088 730.955 634.01 737.93C633.648 731.636 633.393 727.293 633.148 722.934C635.398 722.679 637.179 722.482 638.195 722.37C638.875 719.702 639.652 717.618 639.896 715.471C640.167 713.073 639.955 710.623 639.955 708.193C638.774 707.189 637.594 706.184 636.408 705.179C635.132 707.747 633.856 710.314 631.537 714.971C633.568 708.523 635.009 703.957 636.11 700.464C634.318 697.801 632.867 695.643 631.42 693.495C630.288 698.12 629.07 703.117 627.661 708.874C626.831 708.98 624.959 709.214 623.821 709.357C624.327 716.635 624.826 723.753 625.443 732.582C621.859 730.089 619.865 728.702 617.515 727.059C618.259 733.193 618.966 739.004 619.764 745.584C622.593 747.355 626.608 749.869 630.617 752.383C624.199 755.583 618.733 751.862 612.782 749.874C611.261 751.176 609.422 752.75 607.007 754.823C614.181 758.725 616.691 771.1 629.011 763.95C625.528 775.709 614.335 767.108 608.411 774.14C610.528 777.271 612.974 780.891 614.877 783.709C613.33 785.995 611.798 788.27 609.709 791.358C604.03 792.9 599.946 789.78 599.329 782.827C599.084 780.041 600.956 777.128 601.435 774.204C601.807 771.919 601.504 769.526 599.956 766.167C596.776 769.75 593.591 773.327 589.608 777.803C589.231 774.029 588.944 771.132 588.582 767.501C597.287 768.049 594.703 761.25 596.309 755.445C593.331 757.05 591.182 758.199 589.518 759.097C589.518 755.387 589.518 750.996 589.518 746.605C588.529 746.531 587.545 746.456 586.561 746.387C585.902 750.772 585.243 755.163 584.626 759.288C583.711 758.847 581.733 757.912 579.335 756.774C579.962 762.717 580.489 767.772 581.143 774.018C577.883 772.647 575.932 771.828 573.342 770.744C574.023 775.076 574.64 779.004 575.395 783.82C578.096 785.16 582.079 787.127 586.588 789.359C579.011 793.734 570.705 783.018 563.271 790.625C570.008 793.958 574.102 802.633 583.616 797.546C583.61 798.556 583.61 799.566 583.605 800.57C580.622 800.82 577.601 800.836 574.672 801.368C571.274 801.979 567.955 803.037 563.467 804.196C566.435 807.332 568.785 809.82 571.343 812.525C567.434 814.689 563.552 816.836 559.426 819.127C564.238 823.242 569.295 827.564 574.741 832.226C565.658 836.669 561.808 835.872 558.852 829.727C554.433 830.27 554.8 830.19 553.704 825.193C553.444 824.018 549.849 823.571 547.297 822.604C547.642 821.876 548.584 819.92 549.536 817.937C548.233 816.927 546.802 815.816 545.861 815.082C543.404 818.07 540.916 821.084 537.959 824.677C538.156 826.974 538.47 830.684 538.853 835.208C536.029 834.283 534.046 833.629 531.536 832.805C532.121 836.292 532.583 839.067 533.11 842.193C535.96 843.314 539.698 844.787 543.442 846.259L543.271 847.418C539.789 847.078 536.311 846.7 532.828 846.397C529.483 846.11 526.133 845.898 522.783 845.653C522.581 846.605 522.374 847.551 522.161 848.497C528.042 850.714 533.923 852.93 542.022 855.982C537.193 855.982 534.263 855.812 531.36 856.03C528.499 856.242 525.665 856.843 521.406 857.491C524.474 860.08 526.372 861.691 528.856 863.79C525.171 865.582 521.714 867.262 518.034 869.053C522.554 872.03 527.037 874.985 531.52 877.941C531.27 878.499 531.02 879.062 530.77 879.626C524.293 879.626 517.811 879.626 510.978 879.626C512.26 876.91 513.398 874.502 514.876 871.365C511.94 871.099 509.197 870.844 506.506 870.595C506.134 871.132 505.762 871.668 505.395 872.2C504.342 871.536 503.294 870.871 502.241 870.207C503.656 870.339 505.076 870.467 506.506 870.595C509.808 865.832 513.243 860.888 517.933 854.132C508.968 852.112 501.513 850.437 494.063 848.758C494.052 848.072 494.042 847.386 494.031 846.7C503.209 847.375 509.627 843.931 512.68 834.347C504.613 832.024 496.344 829.642 488.076 827.261C488.139 826.299 488.203 825.342 488.267 824.385C499.327 829.196 503.624 820.855 509.218 814.917C503.363 809.192 493.579 818.984 489.607 810.824C495.674 808.055 501.848 805.232 508.016 802.42C507.761 801.405 507.511 800.395 507.256 799.385C501.173 798.386 495.084 797.386 488.325 796.28C487.283 792.522 487.294 792.873 492.5 792.746C495.068 792.682 497.599 791.045 499.577 790.327C496.514 785.266 493.68 780.652 490.942 775.985C490.564 775.347 490.325 773.88 490.58 773.726C497.87 769.351 491.5 763.403 492.989 758.401C492.383 758.06 491.771 757.725 491.165 757.385C488.102 761.468 485.034 765.55 481.019 770.898C480.642 766.151 480.386 762.961 480.131 759.777C480.881 760.07 481.625 760.362 482.375 760.654C484.412 756.497 486.454 752.335 488.496 748.178C487.974 747.7 487.453 747.216 486.932 746.738C484.741 748.024 482.561 749.305 480.365 750.597C478.403 746.328 487.996 740.88 479.137 737.579C477.164 741.183 474.787 745.51 472.415 749.842L471.102 748.747C471.554 754.164 472.001 759.586 472.548 766.209C469.305 764.673 467.364 763.754 464.875 762.574C465.476 767.464 466.04 772.025 466.651 776.99C469.725 778.478 473.761 780.429 477.797 782.385C477.786 782.97 477.775 783.549 477.765 784.134C471.873 783.177 465.976 782.22 458.786 781.051C458.473 781.274 456.734 782.507 454.384 784.166C461.536 787.903 465.519 797.732 475.872 791.193C475.967 792.156 476.063 793.107 476.159 794.064C472.995 794.728 469.836 795.388 466.678 796.052C463.163 796.796 459.653 797.551 454.761 798.588C457.829 802.165 460.201 804.924 462.807 807.959C458.962 810.213 455.016 812.531 450.741 815.035C455.474 819.356 460.626 824.055 465.779 828.76C465.625 829.461 465.471 830.152 465.322 830.849C454.102 829.786 444.839 842.373 432.805 834.836C438.798 832.518 444.791 830.2 450.784 827.883C450.645 827.096 450.507 826.309 450.374 825.522C442.76 824.103 435.155 822.684 427.546 821.264C427.7 820.557 427.854 819.85 428.009 819.149C432.965 818.872 437.921 818.601 443.461 818.293C441.999 812.185 433.188 812.945 434.863 806.157C435.097 805.19 435.368 804.185 435.347 803.202C435.257 799.422 435.06 795.648 434.9 791.868C427.849 792.411 429.375 788.206 430.513 784.097C430.678 783.485 430.157 782.688 429.753 781.295C427.488 782.513 425.435 783.618 424.217 784.272C424.217 780.849 424.217 776.74 424.217 772.636C423.319 772.567 422.425 772.509 421.527 772.44C420.782 776.389 420.043 780.328 419.368 783.916C418.549 783.64 416.47 782.943 414.358 782.236C414.816 787.472 415.22 792.001 415.704 797.546C412.593 796.265 410.785 795.52 408.243 794.479C408.86 798.55 409.392 802.085 410.035 806.322C413.066 807.656 416.969 809.378 420.872 811.095L420.633 812.339C413.401 811.611 406.17 810.883 398.932 810.155C398.698 811.282 398.464 812.403 398.225 813.525C404.287 816.22 410.339 818.915 416.587 821.695C411.716 822.46 405.611 823.412 397.789 824.635C401.123 827.723 403.271 829.717 406.015 832.252C402.846 833.794 399.815 835.75 396.492 836.728C393.961 837.472 393.801 836.925 394.019 832.975C394.168 830.275 386.048 823.864 383.533 824.507C382.788 824.698 381.805 823.965 380.922 823.656C383.432 818.761 380.071 817.336 376.631 815.114C374.876 813.982 374.599 810.553 373.616 808.081C370.388 812.206 367.899 815.38 364.693 819.478C364.852 821.403 365.15 825.14 365.506 829.504C362.885 828.632 360.811 827.936 358.445 827.149C358.902 833.741 359.7 839.599 367.144 841.523C361.141 841.108 355.143 840.699 349.139 840.284C349.001 840.943 348.857 841.602 348.714 842.262C352 844.531 355.286 846.791 359.524 849.714C355.797 850.878 353.021 851.756 349.378 852.899C350.915 854.738 352.239 856.322 354.191 858.661C351.229 860.41 348.315 862.121 344.88 864.147C349.192 866.959 353.733 869.925 358.971 873.343C351.707 875.671 345.917 877.526 339.679 879.525C341.434 875.719 342.694 872.981 344.13 869.872C339.243 869.245 334.979 868.692 331.395 868.234C336.489 862.664 341.109 857.608 346.56 851.644C341.088 849.247 338.398 843.702 331.49 846.557C329.342 847.444 325.806 844.978 322.812 842.836C332.282 841.672 339.663 838.759 341.173 827.218C333.601 824.815 325.067 822.099 316.532 819.393C316.734 818.527 316.936 817.666 317.138 816.805C320.674 817.049 324.216 817.288 328.087 817.549C331.283 813.668 334.851 809.341 338.414 805.014C338.259 804.35 338.1 803.685 337.935 803.021C334.069 803.425 330.129 804.477 326.359 804.036C323.195 803.664 320.233 801.548 318.085 800.608C324.54 797.248 330.623 794.085 336.701 790.922C336.531 789.795 336.366 788.663 336.196 787.536C330.022 786.324 323.849 785.117 316.319 783.64C316.5 782.678 316.984 780.105 317.112 779.414C321.764 778.744 325.045 778.271 329.049 777.697C324.742 770.776 321.132 764.966 317.494 759.118C327.183 753.914 319.754 746.164 321.897 740.061C321.227 739.748 320.552 739.429 319.882 739.115C316.819 743.851 313.756 748.582 309.965 754.43C309.311 749.369 308.832 745.643 308.311 741.608C310.778 741.156 312.762 740.795 314.059 740.556C314.82 735.91 315.49 731.827 316.442 726.001C313.107 728.664 310.784 730.519 307.652 733.012C309.103 728.457 310.326 724.619 311.411 721.212C309.832 718.889 308.354 716.704 306.498 713.977C305.854 720.154 305.253 725.927 304.722 731.003C303.887 730.567 301.669 729.403 299.393 728.212C300.01 735.596 300.547 742.092 301.217 750.129C297.681 747.806 295.831 746.589 293.236 744.877C294.039 750.714 294.757 755.929 295.56 761.696C298.495 763.44 302.456 765.789 307.003 768.479C299.181 773.837 290.524 760.171 283.308 770.425C290.141 774.018 293.64 785.266 304.924 777.957C301.473 789.684 290.37 781.115 284.201 787.717C286.387 790.534 288.769 793.612 291.476 797.11C287.823 799.826 283.946 802.707 279.82 805.775C284.361 810.511 289.636 816.002 296.453 823.104C289.519 824.374 284.653 825.267 278.575 826.378C281.872 830.96 284.728 834.931 287.987 839.466C284.478 839.466 281.388 839.466 278.299 839.466C277.911 840.236 277.528 841.002 277.145 841.767C281.006 844.207 284.887 846.615 288.716 849.114C289.476 849.608 290.683 850.639 290.545 851.059C290.109 852.388 289.429 854.068 288.328 854.674C283.765 857.199 279.012 859.373 273.97 861.856C273.481 859.224 273.082 857.039 272.38 853.233C268.541 856.301 265.303 858.889 261.341 862.058C260.794 859.634 260.336 857.614 260.198 857.008C262.889 854.222 264.771 852.51 266.308 850.522C266.739 849.964 266.154 848.619 266.037 847.636C264.106 847.902 262.176 848.173 259.852 848.492C260.884 846.445 261.889 844.447 262.83 842.575C261.543 841.608 260.283 840.656 259.108 839.763C256.821 842.48 254.184 845.621 251.355 848.986C251.621 851.633 251.977 855.184 252.408 859.426C249.653 858.852 247.835 858.48 245.022 857.89C245.729 860.585 246.208 862.398 246.995 865.396C242.257 865.167 237.625 865.029 233.031 864.566C232.627 864.524 232.446 862.307 232.286 861.627C236.019 861.281 239.444 860.968 244.963 860.463C241.007 857.699 238.694 856.577 237.099 854.812C235.732 853.303 234.232 850.894 234.498 849.151C235.025 845.754 236.748 842.543 238.433 838.036C229.787 840.183 225.294 840.662 224.852 840.911C227.102 837.77 228.899 835.25 230.691 832.741C228.596 832.311 226.501 831.875 224.161 831.396C224.714 830.36 225.639 828.627 226.198 827.574C225.14 826.171 224.225 824.847 223.14 823.688C223.029 823.566 221.949 824.582 221.242 824.746C216.068 826.006 210.708 829.35 206.496 824.177C212.207 821.748 218.142 819.234 224.071 816.714C223.959 815.827 223.842 814.944 223.725 814.057C217.812 813.126 211.894 812.196 205.98 811.266C205.869 811.776 205.752 812.286 205.635 812.797C204.045 811.048 202.46 809.299 200.716 807.38C206.113 807.098 211.218 806.827 216.339 806.556C212.978 801.469 210.261 797.429 207.656 793.32C207.299 792.762 207.273 791.805 207.459 791.13C208.097 788.796 209.389 786.521 209.485 784.187C209.575 782.141 208.395 780.041 207.772 777.962C206.097 779.259 204.22 780.365 202.795 781.896C201.306 783.507 200.248 785.522 197.802 789.131C197.153 784.373 196.792 781.705 196.728 781.232C200.004 777.096 202.205 774.608 203.965 771.844C204.305 771.313 202.726 768.665 202.349 768.734C200.477 769.075 198.717 770 196.122 771.036C197.238 768.081 198.35 765.151 199.248 762.781C197.802 761.111 196.467 759.57 194.947 757.816C194.069 762.111 193.208 766.31 192.415 770.175C191.41 769.75 189.486 768.931 187.374 768.038C187.959 773.614 188.47 778.515 189.108 784.644C185.694 783.177 183.721 782.327 181.275 781.274C182.009 785.532 182.695 789.492 183.471 793.984C186.534 795.345 190.374 797.051 194.218 798.763C194.245 799.247 194.271 799.736 194.303 800.219C186.821 799.459 179.34 798.694 171.858 797.928C171.73 798.805 171.597 799.683 171.47 800.56C177.84 803.792 182.206 812.324 191.873 806.827C191.91 807.784 191.942 808.751 191.979 809.708C188.895 810.123 185.779 810.42 182.722 810.984C179.361 811.606 176.053 812.478 171.119 813.605C174.373 816.677 176.665 818.846 179.287 821.323C175.463 823.481 171.688 825.602 167.551 827.936C172.204 831.822 177.08 835.899 183.806 841.523C176.803 842.485 172.102 843.133 166.009 843.973C169.396 847.556 171.911 850.225 174.889 853.388C171.98 853.733 169.274 854.063 165.216 854.552C169.433 858.501 171.22 864.162 178.058 860.335C177.893 868.144 171.986 867.283 166.035 868.399C167.125 866.603 167.763 865.561 169.157 863.264C160.766 861.367 152.768 859.559 144.765 857.752C144.845 857.119 144.93 856.492 145.01 855.859C148.881 855.684 153.145 856.46 156.517 855.073C159.968 853.659 162.547 850.129 166.998 846.211C158.426 845.823 152.263 845.547 146.089 845.27L146.259 844.042C151.954 841.64 157.649 839.237 163.344 836.834C163.206 836.042 163.063 835.25 162.914 834.463C155.363 833.214 147.807 831.965 140.251 830.71C140.346 830.014 140.442 829.313 140.538 828.611C145.632 828.218 150.731 827.819 157.889 827.266C154.002 824.087 151.768 822.556 149.907 820.669C147.498 818.224 144.93 816.241 148.525 811.925C150.168 809.953 148.291 805.051 148.014 801.474C145.866 803.042 143.643 804.52 141.596 806.21C140.437 807.162 139.57 808.459 137.422 810.915C136.778 807.066 136.358 804.53 135.933 801.995C136.56 802.293 137.188 802.596 137.81 802.893C140.043 799.491 142.276 796.089 144.505 792.687C143.882 792.129 143.255 791.565 142.627 791.007C140.596 792.076 138.554 793.144 135.534 794.728C136.81 791.682 137.889 789.115 138.831 786.882C137.491 785.426 136.241 784.065 134.619 782.295C133.635 786.032 132.636 789.811 131.684 793.394C131.046 793.155 129.142 792.453 127.063 791.677C127.568 796.807 128.036 801.554 128.642 807.715C125.064 805.923 123.309 805.046 120.655 803.712C121.527 808.081 122.256 811.755 123.08 815.864C126.074 817.14 129.86 818.75 133.646 820.361C133.582 820.877 133.524 821.392 133.46 821.908C129.77 821.392 126.09 820.781 122.389 820.393C118.996 820.042 115.577 819.925 111.86 820.839C117.582 825.772 122.368 832.826 131.716 827.766C131.711 828.733 131.705 829.695 131.7 830.663C125.228 831.662 118.757 832.661 110.728 833.9C114.008 836.893 116.311 838.998 118.911 841.374C114.934 843.335 111.089 845.239 107.048 847.237C111.658 850.921 116.433 854.738 121.208 858.555C120.815 859.586 120.421 860.617 120.023 861.648C109.042 860.048 98.0612 858.453 87.0805 856.853C87.1709 856.253 87.2613 855.652 87.3517 855.051C91.9567 854.669 96.5563 854.281 103.118 853.738C99.2097 850.879 96.8275 849.539 94.9824 847.662C93.3446 845.999 89.9466 844.5 94.089 841.156C95.4662 840.045 94.2219 835.686 94.1794 832.81C92.0045 833.719 89.6276 834.336 87.7186 835.633C86.3467 836.574 85.5916 838.429 83.5656 841.273C82.6191 837.052 82.1405 834.926 82.1299 834.883C85.4108 831.263 87.6282 828.824 89.8403 826.384C89.2979 825.624 88.7502 824.869 88.2078 824.108C86.1287 824.773 84.0495 825.432 82.0076 826.086C80.6569 823.04 89.601 819.011 80.3379 817.07C79.5668 819.186 78.482 822.158 77.4664 824.954C76.3391 824.831 74.5577 824.64 72.9678 824.47C73.4144 828.733 73.8079 832.497 74.2865 837.116C71.2023 836.053 69.3093 835.405 66.7143 834.511C67.4694 838.084 67.1663 842.139 69.0434 844.085C71.2502 846.365 75.3554 846.807 78.4448 849.188C71.5108 848.54 64.5873 847.891 57.6533 847.243C57.5629 847.934 57.4725 848.619 57.3821 849.3C60.9661 851.479 64.5501 853.653 69.8517 856.875C61.45 858.081 54.6276 859.065 47.082 860.149C48.7623 855.615 50.0652 852.096 51.3201 848.72C46.5131 848.098 42.3069 847.556 39.1376 847.147C43.9021 840.965 48.2572 835.59 52.1337 829.887C52.575 829.238 50.4267 825.459 49.2781 825.358C45.5399 825.033 42.961 819.218 38.0263 823.285C36.9894 824.14 32.9586 821.355 30.0712 819.021C40.9296 818.458 46.6939 812.818 49.007 802.702C42.8227 795.26 29.4225 801.176 23.8604 789.955C28.2952 790.518 32.1132 791.002 35.5323 791.433C39.0419 786.617 42.4771 781.896 46.3216 776.628C41.9878 776.485 38.7495 772.801 33.8254 776.155C32.3153 777.186 27.3593 773.152 24.1635 770.244C34.8038 773.199 38.9728 765.742 44.8699 758.284C38.0263 756.758 31.9111 755.392 25.8013 754.031C25.663 754.669 25.5248 755.307 25.3865 755.945C23.7487 753.76 22.1109 751.575 20.0955 748.885C25.7108 748.396 31.1401 747.929 37.2818 747.392C32.7353 739.567 29.1194 733.348 25.3972 726.937C34.639 721.095 27.8804 712.993 28.343 705.413C26.5085 707.614 24.4187 709.655 22.9138 712.069C21.3345 714.599 20.3136 717.48 17.1018 720.021C16.9157 715.853 16.7349 711.696 16.5275 707.088C18.5907 706.795 20.4306 706.535 21.8823 706.328C22.6427 701.235 23.3339 696.6 24.2857 690.231C21.1218 692.9 18.9045 694.771 15.9054 697.307C17.2454 692.501 18.4418 688.233 19.4415 684.645C17.9632 682.359 16.6232 680.296 15.1343 678C14.8897 679.584 14.8844 681.546 14.225 683.257C13.7624 684.459 12.417 685.315 11.2578 686.548C12.0714 689.695 13.0233 693.373 14.0283 697.259C11.6194 695.382 9.5881 693.798 7.27497 691.996C7.88117 700.379 8.39702 707.603 9.0564 716.72C5.51492 714.174 3.77072 712.914 1.29275 711.133C1.93085 717.204 2.51047 722.663 3.22301 729.424C5.91368 731.125 10.2156 733.836 14.4218 736.5C10.2103 739.833 2.98376 738.684 -3.39196 733.401C-5.18397 735.027 -6.97596 736.665 -9.21995 738.711C-1.9828 742.065 -0.185493 756.269 12.8903 748.8C11.1249 750.996 9.35414 753.197 8.95001 753.691C2.20738 754.637 -2.71134 755.333 -9.33167 756.264C-5.96035 761.223 -3.493 764.854 -1.00439 768.511C-4.56182 771.403 -8.45958 774.576 -12.5807 777.93C-7.80553 783.432 -2.56776 789.471 4.03661 797.083C-2.76982 798.481 -7.72579 799.496 -14.1334 800.809C-10.5866 805.934 -7.6407 810.202 -4.49273 814.747C-7.60348 814.891 -10.7248 815.04 -15.2181 815.247C-11.4852 820.515 -10.3739 826.75 -2.15832 825.841C-1.13736 837.196 -15.5372 832.624 -17.4941 841.406C-11.1556 851.309 -11.1556 851.309 3.8239 849.092C0.888622 851.192 -2.05195 853.286 -5.19461 855.53C-4.57246 856.742 -3.90779 858.028 -3.02508 859.745C-9.80493 860.824 -16.3561 861.871 -22.8169 862.903C-22.0884 877.845 -7.13552 875.108 -0.148281 882.486C-6.7367 889.131 -14.7343 887.43 -23.3327 886.499C-21.4875 890.194 -20.3762 894.165 -17.8982 896.908C-15.1969 899.895 -11.2247 901.734 -7.80554 904.078C-7.78427 904.876 -7.76299 905.668 -7.73641 906.47C-15.5957 908.379 -23.455 910.287 -31.9152 912.339C-28.395 918.521 -25.3853 923.816 -21.663 930.354C-22.1894 930.689 -24.3324 932.071 -27.2677 933.964C-23.8219 937.823 -20.4772 941.56 -17.0101 945.446C-21.6524 947.476 -30.171 943.298 -30.2933 954.068C-26.1935 956.731 -20.8122 960.229 -15.1225 963.923C-15.4628 964.056 -17.1324 965.38 -18.5256 965.135C-24.8854 964.003 -28.9267 965.73 -29.9636 972.651C-30.0806 973.428 -31.9471 973.954 -33 974.592C-33 975.107 -33 975.623 -33 976.144C-27.9803 978.754 -22.1203 979.817 -19.8498 986.494C-16.8241 995.397 -3.85994 998.183 3.35063 991.74C7.11013 988.386 10.3538 984.447 15.1875 979.344C14.4802 987.222 13.89 993.851 13.2572 1000.86C16.9157 1000.86 20.1434 1000.86 23.9295 1000.86C23.536 996.466 23.1904 992.511 22.7862 987.95C33.8626 998.141 37.9465 995.924 42.3069 991.32C56.7227 994.462 68.2086 988.647 80.423 980.838C79.7689 985.399 79.2797 988.817 78.7373 992.607C82.1245 992.607 85.1555 992.607 88.6332 992.607C88.6332 990.422 88.6332 988.312 88.6332 986.159C103.905 990.991 118.826 991.235 134.22 982.879C133.657 986.845 133.285 989.487 132.817 992.766C136.422 992.766 139.788 992.766 143.452 992.766C143.149 990.098 142.861 987.615 142.457 984.075C148.945 989.29 155.001 987.69 161.792 987.541C170.273 987.36 180.616 983.554 188.917 992.368C194.984 998.8 203.944 996.753 211.904 994C214.542 993.085 217.27 992.415 219.955 991.639C220.205 992.431 220.449 993.234 220.699 994.031C218.439 995.472 216.18 996.907 213.967 998.311C215.382 1003.04 228.591 1011.5 233.765 1011.93C242.772 1012.68 250.504 1010.01 258.677 1002.47C257.954 1007.92 257.507 1011.25 257.007 1015.04C260.411 1015.04 263.405 1015.04 266.919 1015.04C266.818 1012.96 266.728 1011.08 266.638 1009.07C283.755 1015.02 300.064 1008.34 317.032 1008.11C316.686 1003.83 316.383 1000.1 316.043 995.935C325.816 1003.88 329.98 1004.33 335.686 998.417C343.019 1001.54 349.681 1000.14 356.078 995.706C357.413 994.786 359.428 994.829 361.141 994.451C368.676 992.782 376.216 991.113 384.267 989.327C384.118 990.863 383.793 994.17 383.432 997.816C386.495 997.816 389.52 997.816 393.067 997.816C393.243 995.86 393.418 993.936 393.455 993.463C401.32 993.463 408.775 993.84 416.177 993.351C423.271 992.883 430.306 991.517 437.362 990.549C437.357 989.688 437.352 988.827 437.341 987.961C435.246 987.259 433.145 986.552 430.933 985.803C434.406 980.386 439.399 979.737 446.349 983.4C458.292 989.699 466.444 987.982 475.351 977.308C475.824 976.739 476.265 976.144 478.637 975.793C478.057 980.843 477.478 985.893 476.829 991.506C480.323 991.506 483.758 991.506 487.379 991.506C487.081 988.115 486.826 985.101 486.464 980.955C492.76 986.398 498.524 990.47 505.602 984.155C506.192 983.623 508.022 984.139 509.117 984.569C521.608 989.539 533.248 988.822 545.047 977.935C544.537 982.975 544.197 986.276 543.761 990.576C546.701 990.741 549.61 990.906 553.13 991.102C553.332 988.652 553.502 986.563 553.673 984.484C554.247 984.415 554.725 984.266 555.177 984.325C560.277 984.957 565.366 985.994 570.481 986.169C575.177 986.324 579.909 985.324 584.605 985.494C585.131 985.51 585.514 989.763 585.509 991.995C587.891 997.742 597.728 996.445 597.792 1005.97C597.803 1007.63 604.567 1010.15 608.422 1010.64C612.378 1011.14 616.728 1010.08 620.668 1008.9C628.145 1006.67 630.585 1009.1 629.15 1018C632.771 1018 636.387 1018 640.008 1018C640.008 1013.93 640.008 1009.87 640.008 1005.55C642.768 1007.9 645.166 1011.46 648.192 1012.12C651.435 1012.82 655.275 1010.8 658.784 1010.44C671.807 1008.6 684.829 1006.76 697.852 1004.92C697.825 1003.99 697.799 1003.05 697.772 1002.12C695.289 1001.41 692.806 1000.7 689.748 999.831Z" fill="url(#paint17_linear_9_36)"/>
<path d="M1290.67 869.087C1289.98 867.854 1288.79 865.733 1288.26 864.766C1294.59 862.629 1299.07 863.771 1303.12 870.299C1299.08 869.906 1295.07 869.513 1290.67 869.087ZM1197.56 990.49C1201.97 990.899 1205.85 991.404 1209.75 991.585C1213.64 991.766 1217.53 991.622 1223 991.622C1213.15 997.592 1204 996.975 1197.56 990.49ZM1141.15 911.465C1144.22 915.138 1146.23 917.546 1149.02 920.906C1140.23 919.045 1132.46 917.398 1124.71 915.755C1124.7 914.809 1124.7 913.857 1124.7 912.906C1134.4 917.456 1139.58 910.397 1145.57 905.565C1147.79 907.324 1149.69 908.828 1153.02 911.465C1148.5 911.465 1145.72 911.465 1141.15 911.465ZM1100.62 919.274C1096.82 918.487 1093.01 917.69 1087.62 916.563C1091.62 913.953 1093.81 912.518 1096.26 910.918C1098.05 913.155 1099.62 915.112 1101.19 917.073C1101 917.807 1100.81 918.541 1100.62 919.274ZM1027.01 996.029C1031.47 997.103 1035.93 998.171 1041.47 999.5C1034.35 1005.47 1030.76 1000.33 1027.01 996.029ZM980.225 943.073C980.847 944.216 981.501 945.407 982.74 947.687C975.019 947.687 968.324 947.687 961.629 947.687C961.172 947.054 960.72 946.411 960.263 945.773C964.251 944.944 968.244 944.11 972.589 943.206C969.042 939.596 965.889 936.38 962.73 933.169C963.081 932.388 963.427 931.607 963.772 930.831C972.03 932.59 978.22 946.002 988.919 934.02C988.956 935.269 988.999 936.513 989.041 937.757C986.106 939.527 983.176 941.292 980.225 943.073ZM962.735 967.893C970.084 966.819 977.327 965.761 984.574 964.703C984.729 965.596 984.888 966.489 985.048 967.382C978.523 972.379 969.606 972.586 962.735 967.893ZM863.133 954.146C862.517 953.205 861.9 952.269 861.283 951.334C865.787 948.569 870.296 945.805 874.8 943.041C875.135 943.716 875.465 944.391 875.794 945.072C871.572 948.091 867.356 951.116 863.133 954.146ZM784.552 946.044C790.236 944.763 794.501 943.801 800.281 942.499C802.238 943.456 806.008 945.306 809.746 947.134C807.465 950.701 797.282 950.813 784.552 946.044ZM799.877 930.793C800.802 931.952 802.19 933.696 803.992 935.955C797.202 935.955 791.193 935.955 785.179 935.955C785.158 935.376 785.131 934.791 785.11 934.217C789.821 933.122 794.527 932.027 799.877 930.793ZM1382.75 1066.84C1384.92 1064.45 1387.21 1062.59 1388.59 1060.21C1389.74 1058.23 1389.8 1055.64 1390.34 1053.31C1388.42 1053.04 1386.51 1052.6 1384.58 1052.52C1381.28 1052.39 1377.97 1052.48 1374.67 1052.48C1374.43 1051.52 1374.2 1050.56 1373.97 1049.59C1380.03 1046.71 1386.09 1043.82 1394 1040.05C1386.37 1038.19 1380.67 1036.8 1374.43 1035.28C1378.92 1029.58 1390.27 1033.57 1391.6 1023.64C1386.75 1022.57 1382.14 1021.55 1377 1020.4C1380.93 1017.65 1384.23 1015.35 1388.56 1012.31C1384.3 1011.67 1381.12 1011.2 1377.27 1010.62C1378.81 1007.7 1380.2 1005.08 1382.31 1001.12C1377.91 1001.75 1375.05 1002.16 1372.12 1002.59C1372.76 999.623 1373.29 997.119 1373.51 996.098C1375.65 990.331 1377.27 985.966 1378.9 981.565C1376.02 981.209 1373.33 981.336 1371.08 980.406C1369.94 979.933 1368.72 977.344 1369.02 976.068C1370.28 970.843 1372.12 965.756 1373.46 961.471C1370.13 959.297 1366.93 957.218 1364.26 955.48C1365.49 951.015 1366.74 946.523 1368.22 941.127C1364.01 942.355 1361.21 943.174 1357.4 944.285C1358.71 939.639 1359.72 936.067 1360.83 932.154C1357.42 931.617 1354.26 931.123 1350.64 930.549C1354.84 924.042 1358.59 918.243 1362.93 911.524C1357.92 909.812 1355.75 902.837 1348.22 906.388C1346.29 907.297 1342.62 904.528 1339.47 902.035C1350.48 901.843 1356.65 896.762 1358.05 884.535C1354.34 883.616 1349.17 882.728 1344.3 881C1340.39 879.613 1336.83 877.21 1333.12 875.259C1333.35 874.6 1333.58 873.941 1333.81 873.282C1337.47 873.723 1341.13 874.169 1345.06 874.642C1348.24 870.305 1351.76 865.494 1355.7 860.114C1351.48 859.322 1348.2 855.495 1343.2 859.54C1342.1 860.428 1337.16 856.563 1332.33 854.017C1338.23 853.108 1342.35 853.475 1345.23 851.763C1348.48 849.839 1350.61 846.038 1354.53 841.562C1347.41 839.935 1341.39 838.559 1335.37 837.182C1335.21 837.878 1335.04 838.574 1334.87 839.276C1333.28 837.059 1331.68 834.843 1329.75 832.158C1335.15 831.579 1340.67 830.989 1346.58 830.356C1342.02 822.415 1338.38 816.078 1334.74 809.758C1344.86 803.969 1337.04 795.633 1339.11 788.904C1338.4 788.569 1337.68 788.234 1336.96 787.893C1334.02 792.927 1331.09 797.956 1327.01 804.936C1326.65 798.642 1326.4 794.294 1326.14 789.935C1328.4 789.685 1330.18 789.483 1331.2 789.371C1331.88 786.708 1332.65 784.619 1332.9 782.471C1333.16 780.074 1332.95 777.623 1332.95 775.194C1331.77 774.189 1330.59 773.19 1329.4 772.185C1328.13 774.753 1326.86 777.315 1324.54 781.972C1326.57 775.529 1328.01 770.963 1329.11 767.465C1327.32 764.807 1325.86 762.643 1324.42 760.496C1323.29 765.12 1322.06 770.112 1320.66 775.874C1319.83 775.981 1317.96 776.215 1316.82 776.358C1317.33 783.641 1317.83 790.759 1318.44 799.588C1314.85 797.09 1312.87 795.702 1310.51 794.065C1311.26 800.194 1311.97 806.004 1312.76 812.591C1315.59 814.355 1319.61 816.87 1323.61 819.384C1317.2 822.585 1311.73 818.863 1305.78 816.875C1304.26 818.178 1302.42 819.751 1300 821.824C1307.18 825.731 1309.69 838.096 1322.02 830.952C1318.53 842.71 1307.34 834.109 1301.41 841.142C1303.53 844.273 1305.97 847.893 1307.87 850.711C1306.33 853.002 1304.79 855.266 1302.71 858.365C1297.02 859.902 1292.95 856.781 1292.33 849.833C1292.08 847.048 1293.96 844.129 1294.43 841.206C1294.8 838.92 1294.5 836.528 1292.96 833.168C1289.78 836.751 1286.59 840.329 1282.61 844.805C1282.23 841.036 1281.94 838.133 1281.58 834.508C1290.29 835.05 1287.7 828.251 1289.31 822.452C1286.33 824.046 1284.18 825.2 1282.51 826.098C1282.51 822.388 1282.51 817.997 1282.51 813.611C1281.53 813.532 1280.55 813.462 1279.56 813.388C1278.9 817.774 1278.24 822.159 1277.63 826.29C1276.71 825.854 1274.73 824.913 1272.34 823.775C1272.96 829.724 1273.49 834.774 1274.14 841.02C1270.88 839.648 1268.93 838.83 1266.34 837.745C1267.02 842.083 1267.64 846.006 1268.4 850.822C1271.1 852.162 1275.08 854.134 1279.59 856.361C1272.01 860.736 1263.71 850.019 1256.27 857.626C1263.01 860.959 1267.1 869.635 1276.62 864.553C1276.61 865.557 1276.61 866.568 1276.61 867.578C1273.62 867.822 1270.6 867.843 1267.67 868.37C1264.27 868.981 1260.96 870.039 1256.47 871.198C1259.44 874.334 1261.79 876.827 1264.34 879.528C1260.44 881.691 1256.55 883.839 1252.42 886.13C1257.24 890.244 1262.3 894.571 1267.74 899.228C1258.66 903.667 1254.81 902.88 1251.85 896.73C1247.43 897.272 1247.8 897.192 1246.71 892.201C1246.44 891.02 1242.85 890.579 1240.3 889.606C1240.64 888.878 1241.58 886.922 1242.54 884.939C1241.23 883.929 1239.8 882.818 1238.86 882.09C1236.41 885.072 1233.92 888.086 1230.96 891.68C1231.15 893.976 1231.47 897.686 1231.85 902.21C1229.03 901.285 1227.04 900.631 1224.54 899.807C1225.12 903.3 1225.58 906.07 1226.11 909.195C1228.96 910.317 1232.7 911.789 1236.44 913.262L1236.27 914.421C1232.79 914.08 1229.31 913.703 1225.83 913.4C1222.48 913.113 1219.13 912.906 1215.78 912.656C1215.58 913.607 1215.37 914.554 1215.16 915.5C1221.04 917.717 1226.92 919.933 1235.02 922.985C1230.19 922.985 1227.26 922.82 1224.36 923.032C1221.5 923.245 1218.67 923.846 1214.41 924.494C1217.48 927.088 1219.37 928.688 1221.86 930.793C1218.17 932.585 1214.72 934.265 1211.04 936.056C1215.55 939.033 1220.03 941.989 1224.52 944.944C1224.27 945.508 1224.02 946.066 1223.77 946.629C1217.29 946.629 1210.81 946.629 1203.98 946.629C1205.26 943.913 1206.4 941.505 1207.88 938.368C1204.94 938.103 1202.19 937.848 1199.51 937.603C1199.14 938.135 1198.76 938.672 1198.39 939.208C1197.34 938.539 1196.3 937.874 1195.24 937.21C1196.65 937.337 1198.08 937.47 1199.51 937.603C1202.81 932.84 1206.24 927.896 1210.93 921.135C1201.97 919.115 1194.51 917.44 1187.06 915.76C1187.05 915.074 1187.04 914.389 1187.03 913.703C1196.21 914.384 1202.63 910.933 1205.68 901.349C1197.61 899.026 1189.35 896.644 1181.08 894.263C1181.14 893.306 1181.2 892.349 1181.26 891.387C1192.33 896.203 1196.63 887.863 1202.22 881.92C1196.36 876.195 1186.58 885.986 1182.61 877.827C1188.68 875.057 1194.84 872.24 1201.02 869.422C1200.76 868.412 1200.51 867.397 1200.26 866.387C1194.17 865.387 1188.09 864.388 1181.33 863.283C1180.28 859.524 1180.29 859.875 1185.5 859.748C1188.07 859.684 1190.6 858.046 1192.58 857.329C1189.52 852.268 1186.68 847.654 1183.94 842.987C1183.57 842.349 1183.33 840.882 1183.58 840.727C1190.87 836.358 1184.5 830.404 1185.99 825.402C1185.38 825.067 1184.77 824.727 1184.17 824.387C1181.1 828.469 1178.04 832.552 1174.02 837.899C1173.64 833.152 1173.39 829.963 1173.13 826.779C1173.88 827.071 1174.63 827.363 1175.37 827.656C1177.41 823.499 1179.46 819.336 1181.5 815.18C1180.97 814.701 1180.45 814.223 1179.93 813.739C1177.74 815.025 1175.56 816.307 1173.37 817.598C1171.4 813.33 1181 807.881 1172.14 804.58C1170.17 808.184 1167.79 812.511 1165.41 816.838L1164.1 815.748C1164.55 821.165 1165 826.582 1165.55 833.216C1162.31 831.675 1160.37 830.755 1157.88 829.575C1158.48 834.465 1159.04 839.026 1159.65 843.991C1162.72 845.48 1166.76 847.431 1170.8 849.387C1170.79 849.972 1170.78 850.556 1170.77 851.136C1164.87 850.179 1158.98 849.222 1151.79 848.058C1151.47 848.276 1149.73 849.509 1147.39 851.168C1154.54 854.905 1158.52 864.734 1168.87 858.195C1168.97 859.152 1169.06 860.114 1169.16 861.066C1166 861.73 1162.84 862.389 1159.68 863.059C1156.16 863.798 1152.65 864.553 1147.76 865.589C1150.83 869.167 1153.2 871.926 1155.81 874.967C1151.96 877.215 1148.02 879.533 1143.74 882.037C1148.47 886.358 1153.63 891.063 1158.78 895.767C1158.63 896.464 1158.47 897.155 1158.32 897.857C1147.1 896.788 1137.84 909.376 1125.8 901.838C1131.8 899.52 1137.79 897.203 1143.78 894.885C1143.65 894.098 1143.51 893.311 1143.37 892.525C1135.76 891.105 1128.16 889.686 1120.54 888.267C1120.7 887.56 1120.86 886.853 1121.01 886.151C1125.97 885.875 1130.92 885.603 1136.46 885.295C1135 879.187 1126.19 879.953 1127.86 873.165C1128.1 872.192 1128.37 871.187 1128.35 870.204C1128.26 866.424 1128.06 862.65 1127.9 858.87C1120.85 859.412 1122.38 855.208 1123.52 851.099C1123.68 850.493 1123.15 849.69 1122.75 848.292C1120.49 849.514 1118.44 850.62 1117.22 851.279C1117.22 847.851 1117.22 843.747 1117.22 839.638C1116.32 839.574 1115.42 839.51 1114.52 839.446C1113.78 843.391 1113.04 847.335 1112.37 850.918C1111.55 850.641 1109.47 849.945 1107.36 849.238C1107.82 854.474 1108.22 859.003 1108.71 864.548C1105.59 863.266 1103.79 862.528 1101.25 861.48C1101.86 865.552 1102.39 869.087 1103.03 873.324C1106.07 874.658 1109.97 876.381 1113.87 878.098L1113.64 879.342C1106.4 878.619 1099.17 877.885 1091.93 877.162C1091.7 878.284 1091.47 879.405 1091.23 880.527C1097.28 883.222 1103.34 885.917 1109.58 888.697C1104.71 889.463 1098.61 890.415 1090.79 891.642C1094.13 894.726 1096.27 896.719 1099.01 899.255C1095.85 900.796 1092.82 902.752 1089.49 903.731C1086.96 904.48 1086.8 903.927 1087.02 899.978C1087.17 897.277 1079.05 890.872 1076.54 891.51C1075.79 891.701 1074.8 890.967 1073.92 890.659C1076.43 885.763 1073.07 884.338 1069.63 882.122C1067.88 880.984 1067.6 877.555 1066.62 875.083C1063.38 879.209 1060.9 882.382 1057.7 886.481C1057.85 888.41 1058.15 892.142 1058.51 896.506C1055.89 895.635 1053.81 894.938 1051.45 894.151C1051.9 900.743 1052.7 906.601 1060.15 908.531C1054.14 908.111 1048.14 907.701 1042.14 907.287C1042 907.946 1041.86 908.605 1041.72 909.27C1045 911.529 1048.29 913.793 1052.53 916.717C1048.8 917.887 1046.02 918.758 1042.38 919.901C1043.92 921.74 1045.24 923.325 1047.19 925.664C1044.23 927.413 1041.32 929.13 1037.88 931.15C1042.19 933.962 1046.74 936.928 1051.97 940.346C1044.71 942.674 1038.92 944.53 1032.68 946.528C1034.44 942.728 1035.7 939.984 1037.13 936.88C1032.25 936.247 1027.98 935.695 1024.4 935.232C1029.49 929.667 1034.11 924.611 1039.56 918.647C1034.09 916.249 1031.39 910.705 1024.49 913.56C1022.34 914.447 1018.81 911.981 1015.81 909.839C1025.28 908.674 1032.67 905.766 1034.18 894.22C1026.6 891.812 1018.07 889.107 1009.53 886.39C1009.74 885.529 1009.94 884.673 1010.14 883.812C1013.68 884.051 1017.21 884.285 1021.09 884.551C1024.29 880.67 1027.85 876.343 1031.42 872.016C1031.26 871.352 1031.1 870.687 1030.94 870.023C1027.07 870.427 1023.13 871.479 1019.36 871.038C1016.19 870.666 1013.23 868.556 1011.09 867.609C1017.54 864.25 1023.62 861.087 1029.7 857.924C1029.53 856.797 1029.36 855.67 1029.19 854.538C1023.03 853.331 1016.85 852.119 1009.32 850.641C1009.5 849.679 1009.99 847.106 1010.11 846.415C1014.76 845.746 1018.05 845.273 1022.05 844.698C1017.74 837.772 1014.13 831.967 1010.5 826.12C1020.18 820.921 1012.75 813.165 1014.9 807.062C1014.22 806.749 1013.55 806.43 1012.88 806.116C1009.82 810.853 1006.76 815.584 1002.97 821.436C1002.31 816.37 1001.83 812.644 1001.31 808.609C1003.78 808.157 1005.76 807.796 1007.06 807.557C1007.82 802.911 1008.49 798.828 1009.44 793.007C1006.11 795.665 1003.78 797.52 1000.65 800.014C1002.11 795.463 1003.33 791.62 1004.41 788.212C1002.83 785.889 1001.35 783.705 999.5 780.978C998.857 787.155 998.256 792.928 997.725 798.01C996.89 797.568 994.667 796.404 992.396 795.213C993.013 802.602 993.55 809.093 994.22 817.13C990.684 814.807 988.828 813.59 986.233 811.884C987.042 817.715 987.76 822.93 988.557 828.703C991.498 830.447 995.459 832.791 1000.01 835.486C992.184 840.839 983.527 827.172 976.306 837.426C983.144 841.025 986.643 852.268 997.927 844.964C994.475 856.686 983.373 848.116 977.204 854.719C979.39 857.541 981.772 860.619 984.479 864.112C980.826 866.828 976.949 869.715 972.823 872.776C977.364 877.513 982.634 883.004 989.456 890.111C982.522 891.376 977.651 892.27 971.578 893.381C974.87 897.963 977.731 901.934 980.99 906.474C977.481 906.474 974.391 906.474 971.302 906.474C970.914 907.239 970.531 908.004 970.148 908.77C974.008 911.21 977.89 913.623 981.719 916.116C982.474 916.611 983.681 917.647 983.548 918.057C983.112 919.391 982.431 921.071 981.331 921.682C976.763 924.202 972.009 926.376 966.973 928.858C966.484 926.227 966.085 924.042 965.378 920.241C961.544 923.303 958.306 925.892 954.339 929.06C953.797 926.636 953.339 924.616 953.201 924.016C955.892 921.23 957.774 919.513 959.311 917.525C959.742 916.972 959.157 915.622 959.034 914.639C957.11 914.904 955.179 915.175 952.856 915.494C953.887 913.448 954.892 911.455 955.833 909.583C954.547 908.611 953.286 907.654 952.106 906.766C949.825 909.482 947.182 912.624 944.358 915.989C944.624 918.636 944.98 922.187 945.411 926.434C942.651 925.86 940.838 925.477 938.02 924.898C938.732 927.588 939.211 929.406 939.998 932.404C935.26 932.17 930.628 932.037 926.029 931.57C925.63 931.527 925.449 929.31 925.29 928.63C929.022 928.284 932.447 927.971 937.967 927.466C934.01 924.701 931.692 923.58 930.102 921.815C928.735 920.305 927.231 917.902 927.502 916.159C928.028 912.762 929.751 909.551 931.437 905.044C922.79 907.186 918.297 907.664 917.856 907.914C920.105 904.767 921.902 902.253 923.694 899.744C921.599 899.313 919.499 898.883 917.165 898.399C917.718 897.362 918.643 895.629 919.201 894.577C918.143 893.173 917.228 891.855 916.144 890.691C916.032 890.574 914.953 891.584 914.245 891.754C909.066 893.009 903.711 896.352 899.5 891.18C905.211 888.756 911.145 886.236 917.074 883.716C916.957 882.834 916.846 881.946 916.729 881.059C910.815 880.128 904.897 879.198 898.984 878.268C898.867 878.778 898.755 879.288 898.638 879.799C897.048 878.05 895.459 876.301 893.72 874.382C899.117 874.095 904.222 873.829 909.342 873.558C905.982 868.471 903.265 864.431 900.654 860.321C900.303 859.763 900.276 858.807 900.462 858.132C901.1 855.798 902.393 853.523 902.488 851.189C902.579 849.142 901.398 847.043 900.776 844.964C899.096 846.261 897.219 847.367 895.799 848.898C894.31 850.509 893.252 852.523 890.806 856.133C890.157 851.375 889.79 848.706 889.726 848.233C893.007 844.098 895.209 841.615 896.969 838.846C897.304 838.319 895.73 835.667 895.352 835.736C893.48 836.076 891.72 836.996 889.12 838.038C890.242 835.082 891.353 832.153 892.252 829.782C890.806 828.113 889.471 826.577 887.95 824.817C887.073 829.112 886.211 833.312 885.419 837.176C884.409 836.751 882.489 835.938 880.378 835.04C880.958 840.616 881.473 845.517 882.112 851.646C878.698 850.179 876.725 849.328 874.279 848.276C875.013 852.534 875.699 856.494 876.475 860.986C879.538 862.352 883.377 864.059 887.222 865.765C887.248 866.249 887.275 866.738 887.301 867.227C879.82 866.461 872.343 865.696 864.862 864.93C864.734 865.808 864.601 866.685 864.468 867.562C870.839 870.794 875.21 879.326 884.871 873.829C884.914 874.791 884.946 875.753 884.983 876.71C881.894 877.125 878.783 877.422 875.72 877.986C872.365 878.608 869.057 879.48 864.117 880.607C867.377 883.679 869.669 885.848 872.29 888.331C868.467 890.484 864.691 892.61 860.554 894.938C865.207 898.824 870.078 902.896 876.81 908.525C869.807 909.488 865.106 910.136 859.012 910.976C862.4 914.559 864.915 917.233 867.893 920.385C864.984 920.736 862.277 921.066 858.22 921.555C862.437 925.504 864.224 931.166 871.057 927.338C870.897 935.147 864.989 934.286 859.039 935.402C860.129 933.605 860.762 932.563 862.16 930.267C853.769 928.369 845.772 926.562 837.769 924.754C837.849 924.122 837.934 923.49 838.014 922.862C841.885 922.692 846.144 923.463 849.521 922.076C852.966 920.667 855.551 917.132 860.002 913.214C851.43 912.831 845.261 912.549 839.093 912.273L839.263 911.045C844.958 908.642 850.653 906.24 856.348 903.837C856.21 903.045 856.061 902.258 855.918 901.466C848.361 900.217 840.811 898.967 833.249 897.718C833.35 897.017 833.446 896.315 833.542 895.613C838.636 895.22 843.735 894.821 850.893 894.268C847 891.09 844.772 889.564 842.911 887.671C840.497 885.226 837.934 883.243 841.529 878.932C843.172 876.96 841.294 872.054 841.018 868.476C838.864 870.044 836.647 871.522 834.6 873.212C833.441 874.164 832.569 875.461 830.426 877.917C829.782 874.074 829.362 871.533 828.937 868.997C829.564 869.3 830.186 869.598 830.814 869.901C833.047 866.498 835.281 863.091 837.509 859.689C836.881 859.131 836.259 858.567 835.631 858.009C833.6 859.078 831.558 860.141 828.533 861.73C829.814 858.684 830.893 856.122 831.835 853.884C830.495 852.428 829.245 851.067 827.623 849.297C826.64 853.034 825.64 856.813 824.688 860.401C824.05 860.162 822.146 859.455 820.067 858.679C820.572 863.809 821.04 868.556 821.646 874.722C818.068 872.925 816.313 872.048 813.66 870.719C814.532 875.083 815.26 878.757 816.079 882.866C819.078 884.142 822.864 885.752 826.645 887.363C826.586 887.879 826.523 888.394 826.459 888.91C822.774 888.394 819.094 887.783 815.393 887.395C812 887.044 808.581 886.932 804.864 887.841C810.581 892.775 815.372 899.829 824.72 894.773C824.715 895.735 824.709 896.698 824.704 897.665C818.233 898.664 811.761 899.664 803.732 900.903C807.013 903.895 809.315 906 811.91 908.377C807.938 910.344 804.093 912.247 800.052 914.245C804.657 917.924 809.438 921.741 814.213 925.557C813.819 926.589 813.426 927.62 813.027 928.651C802.046 927.051 791.066 925.456 780.085 923.856C780.175 923.255 780.266 922.655 780.356 922.049C784.961 921.671 789.561 921.289 796.122 920.741C792.214 917.887 789.827 916.542 787.987 914.671C786.349 913.007 782.951 911.507 787.093 908.164C788.471 907.048 787.226 902.689 787.184 899.813C785.009 900.722 782.632 901.333 780.723 902.641C779.346 903.576 778.596 905.431 776.57 908.275C775.618 904.055 775.14 901.929 775.134 901.886C778.415 898.266 780.633 895.826 782.845 893.386C782.302 892.626 781.755 891.871 781.212 891.116C779.133 891.775 777.054 892.434 775.012 893.088C773.661 890.042 782.605 886.013 773.342 884.073C772.571 886.188 771.487 889.16 770.471 891.956C769.344 891.834 767.562 891.642 765.972 891.472C766.414 895.735 766.812 899.499 767.291 904.119C764.202 903.055 762.314 902.407 759.719 901.514C760.474 905.086 760.171 909.142 762.048 911.088C764.249 913.368 768.355 913.809 771.449 916.191C764.515 915.542 757.587 914.899 750.658 914.251C750.568 914.936 750.477 915.622 750.387 916.308C753.971 918.482 757.549 920.661 762.856 923.883C754.455 925.09 747.632 926.067 740.087 927.147C741.767 922.618 743.07 919.099 744.325 915.723C739.518 915.101 735.312 914.559 732.142 914.15C736.901 907.973 741.262 902.593 745.138 896.889C745.58 896.24 743.426 892.461 742.283 892.365C738.545 892.036 735.966 886.22 731.026 890.292C729.994 891.143 725.964 888.357 723.076 886.023C733.935 885.46 739.699 879.82 742.012 869.709C735.827 862.267 722.427 868.178 716.86 856.962C721.295 857.52 725.118 858.004 728.532 858.44C732.041 853.618 735.482 848.898 739.321 843.63C734.993 843.486 731.754 839.808 726.83 843.162C725.32 844.188 720.364 840.153 717.168 837.251C727.809 840.201 731.978 832.743 737.875 825.285C731.031 823.759 724.916 822.393 718.806 821.032C718.668 821.67 718.524 822.313 718.391 822.951C716.754 820.761 715.116 818.576 713.101 815.887C718.716 815.397 724.14 814.93 730.287 814.398C725.74 806.568 722.124 800.349 718.402 793.943C727.644 788.096 720.885 779.994 721.348 772.414C719.513 774.62 717.424 776.656 715.919 779.069C714.339 781.6 713.313 784.481 710.107 787.022C709.921 782.859 709.734 778.697 709.532 774.088C711.59 773.796 713.435 773.535 714.887 773.328C715.642 768.235 716.339 763.6 717.285 757.232C714.127 759.9 711.909 761.772 708.91 764.307C710.25 759.502 711.447 755.233 712.446 751.645C710.968 749.359 709.628 747.291 708.134 745C707.895 746.584 707.884 748.546 707.23 750.257C706.767 751.459 705.422 752.32 704.263 753.553C705.076 756.695 706.028 760.373 707.033 764.265C704.624 762.383 702.593 760.799 700.28 758.997C700.881 767.38 701.402 774.604 702.061 783.721C698.52 781.174 696.776 779.92 694.298 778.134C694.936 784.204 695.516 789.664 696.228 796.425C698.919 798.126 703.221 800.843 707.427 803.501C703.215 806.834 695.989 805.686 689.608 800.402C687.821 802.028 686.029 803.665 683.785 805.712C691.022 809.066 692.82 823.27 705.895 815.801C704.125 817.997 702.354 820.198 701.955 820.692C695.207 821.644 690.294 822.335 683.673 823.265C687.045 828.23 689.507 831.855 692.001 835.518C688.443 838.41 684.545 841.578 680.424 844.932C685.2 850.434 690.437 856.473 697.042 864.091C690.235 865.483 685.279 866.499 678.866 867.812C682.413 872.936 685.365 877.204 688.512 881.75C685.396 881.898 682.28 882.042 677.787 882.255C681.52 887.523 682.626 893.753 690.847 892.849C691.868 904.204 677.468 899.627 675.511 908.414C681.85 918.312 681.85 918.312 696.829 916.095C693.894 918.195 690.953 920.289 687.81 922.533C688.433 923.745 689.097 925.036 689.975 926.748C683.2 927.827 676.649 928.874 670.188 929.906C670.917 944.849 685.87 942.111 692.857 949.489C686.268 956.139 678.271 954.433 669.667 953.502C671.518 957.197 672.629 961.168 675.102 963.906C677.808 966.898 681.781 968.738 685.2 971.082C685.221 971.879 685.242 972.677 685.269 973.474C677.409 975.383 669.55 977.291 661.09 979.343C664.61 985.525 667.62 990.82 671.337 997.358C670.816 997.688 668.668 999.075 665.732 1000.97C669.183 1004.83 672.528 1008.56 675.995 1012.45C671.353 1014.49 662.834 1010.3 662.712 1021.07C666.812 1023.74 672.193 1027.23 677.883 1030.93C677.542 1031.07 675.867 1032.39 674.479 1032.14C668.114 1031.01 664.078 1032.73 663.042 1039.66C662.925 1040.43 661.058 1040.95 660 1041.6C660 1042.11 660 1042.63 660 1043.15C665.02 1045.76 670.885 1046.82 673.15 1053.5C676.176 1062.4 689.145 1065.19 696.356 1058.75C700.115 1055.39 703.359 1051.46 708.193 1046.35C707.485 1054.23 706.89 1060.86 706.262 1067.87C709.921 1067.87 713.148 1067.87 716.929 1067.87C716.541 1063.47 716.195 1059.51 715.791 1054.95C726.867 1065.15 730.946 1062.93 735.312 1058.33C749.727 1061.47 761.213 1055.65 773.427 1047.84C772.773 1052.4 772.284 1055.82 771.742 1059.62C775.124 1059.62 778.16 1059.62 781.638 1059.62C781.638 1057.43 781.638 1055.32 781.638 1053.16C796.909 1057.99 811.825 1058.24 827.224 1049.89C826.661 1053.84 826.289 1056.49 825.821 1059.77C829.426 1059.77 832.792 1059.77 836.456 1059.77C836.147 1057.1 835.865 1054.61 835.456 1051.08C841.949 1056.3 848.005 1054.69 854.79 1054.55C863.277 1054.36 873.614 1050.56 881.92 1059.37C887.987 1065.8 896.947 1063.76 904.908 1061C907.545 1060.1 910.273 1059.43 912.958 1058.64C913.203 1059.44 913.453 1060.24 913.703 1061.04C911.443 1062.47 909.178 1063.91 906.971 1065.31C908.385 1070.05 921.589 1078.51 926.768 1078.94C935.776 1079.68 943.507 1077 951.68 1069.48C950.952 1074.93 950.511 1078.26 950.005 1082.05C953.409 1082.05 956.402 1082.05 959.917 1082.05C959.821 1079.96 959.731 1078.09 959.641 1076.09C976.752 1082.03 993.061 1075.35 1010.03 1075.11C1009.69 1070.83 1009.39 1067.1 1009.05 1062.94C1018.82 1070.89 1022.98 1071.34 1028.69 1065.42C1036.02 1068.55 1042.68 1067.15 1049.08 1062.72C1050.42 1061.79 1052.43 1061.84 1054.14 1061.46C1061.68 1059.79 1069.22 1058.12 1077.26 1056.34C1077.11 1057.87 1076.79 1061.18 1076.43 1064.82C1079.49 1064.82 1082.52 1064.82 1086.07 1064.82C1086.24 1062.86 1086.42 1060.95 1086.46 1060.47C1094.32 1060.47 1101.78 1060.84 1109.18 1060.36C1116.27 1059.89 1123.31 1058.53 1130.36 1057.55C1130.36 1056.69 1130.35 1055.83 1130.34 1054.97C1128.25 1054.26 1126.15 1053.55 1123.93 1052.81C1127.41 1047.39 1132.4 1046.74 1139.35 1050.4C1151.29 1056.7 1159.45 1054.99 1168.35 1044.31C1168.83 1043.74 1169.27 1043.15 1171.64 1042.8C1171.06 1047.85 1170.47 1052.9 1169.83 1058.52C1173.32 1058.52 1176.76 1058.52 1180.38 1058.52C1180.08 1055.11 1179.82 1052.11 1179.47 1047.96C1185.76 1053.4 1191.53 1057.48 1198.6 1051.16C1199.19 1050.63 1201.02 1051.14 1202.11 1051.57C1214.61 1056.54 1226.25 1055.83 1238.05 1044.94C1237.53 1049.98 1237.2 1053.28 1236.76 1057.58C1239.7 1057.75 1242.61 1057.91 1246.13 1058.11C1246.33 1055.66 1246.5 1053.57 1246.67 1051.49C1247.25 1051.43 1247.72 1051.28 1248.17 1051.33C1253.28 1051.96 1258.36 1053 1263.48 1053.17C1268.18 1053.33 1272.91 1052.33 1277.61 1052.49C1278.13 1052.52 1278.51 1056.77 1278.51 1059.01C1280.89 1064.75 1290.73 1063.45 1290.79 1072.98C1290.8 1074.64 1297.57 1077.16 1301.42 1077.64C1305.38 1078.14 1309.73 1077.08 1313.67 1075.9C1321.15 1073.67 1323.59 1076.1 1322.15 1085C1325.77 1085 1329.39 1085 1333 1085C1333 1080.94 1333 1076.87 1333 1072.56C1335.77 1074.91 1338.17 1078.47 1341.19 1079.13C1344.43 1079.83 1348.27 1077.8 1351.78 1077.45C1364.81 1075.61 1377.83 1073.77 1390.85 1071.93C1390.83 1070.99 1390.8 1070.06 1390.77 1069.12C1388.29 1068.41 1385.81 1067.7 1382.75 1066.84Z" fill="url(#paint18_linear_9_36)"/>
<path d="M1447.11 804.275C1447.83 803.026 1449.08 800.867 1449.64 799.883C1443.01 797.703 1438.32 798.866 1434.08 805.508C1438.31 805.108 1442.5 804.713 1447.11 804.275ZM1544.53 927.818C1539.92 928.24 1535.85 928.749 1531.78 928.933C1527.72 929.122 1523.64 928.971 1517.92 928.971C1528.22 935.045 1537.8 934.418 1544.53 927.818ZM1603.55 847.406C1600.35 851.138 1598.25 853.594 1595.32 857.013C1604.52 855.114 1612.65 853.437 1620.76 851.771C1620.77 850.803 1620.77 849.834 1620.78 848.871C1610.62 853.497 1605.2 846.313 1598.94 841.395C1596.61 843.186 1594.62 844.722 1591.14 847.406C1595.88 847.406 1598.78 847.406 1603.55 847.406ZM1645.96 855.352C1649.95 854.541 1653.92 853.74 1659.57 852.593C1655.39 849.932 1653.1 848.471 1650.53 846.843C1648.66 849.12 1647.01 851.116 1645.37 853.112C1645.57 853.859 1645.76 854.606 1645.96 855.352ZM1722.98 933.455C1718.32 934.548 1713.65 935.641 1707.86 936.993C1715.31 943.068 1719.06 937.837 1722.98 933.455ZM1771.94 879.56C1771.29 880.728 1770.61 881.94 1769.3 884.266C1777.39 884.266 1784.39 884.266 1791.4 884.266C1791.87 883.617 1792.35 882.962 1792.83 882.313C1788.65 881.469 1784.48 880.625 1779.93 879.7C1783.64 876.027 1786.94 872.76 1790.24 869.487C1789.88 868.697 1789.52 867.902 1789.15 867.107C1780.51 868.903 1774.04 882.546 1762.84 870.358C1762.8 871.624 1762.76 872.89 1762.72 874.156C1765.79 875.957 1768.85 877.758 1771.94 879.56ZM1790.24 904.822C1782.55 903.73 1774.97 902.659 1767.39 901.582C1767.22 902.491 1767.06 903.4 1766.89 904.309C1773.71 909.393 1783.05 909.599 1790.24 904.822ZM1894.46 890.828C1895.1 889.881 1895.75 888.929 1896.39 887.972C1891.68 885.164 1886.96 882.346 1882.25 879.533C1881.9 880.225 1881.55 880.912 1881.21 881.599C1885.63 884.677 1890.04 887.755 1894.46 890.828ZM1976.68 882.589C1970.74 881.291 1966.27 880.312 1960.22 878.986C1958.18 879.96 1954.23 881.837 1950.32 883.698C1952.7 887.328 1963.36 887.442 1976.68 882.589ZM1960.64 867.069C1959.67 868.254 1958.22 870.023 1956.34 872.327C1963.44 872.327 1969.73 872.327 1976.02 872.327C1976.05 871.732 1976.07 871.142 1976.09 870.547C1971.17 869.438 1966.24 868.329 1960.64 867.069ZM1350.77 1005.52C1348.5 1003.08 1346.09 1001.2 1344.65 998.77C1343.45 996.763 1343.39 994.112 1342.82 991.748C1344.83 991.467 1346.83 991.023 1348.84 990.942C1352.3 990.813 1355.76 990.905 1359.22 990.905C1359.47 989.931 1359.71 988.946 1359.95 987.967C1353.62 985.03 1347.28 982.098 1339 978.262C1346.98 976.364 1352.94 974.946 1359.47 973.394C1354.77 967.606 1342.9 971.668 1341.51 961.558C1346.58 960.465 1351.41 959.421 1356.78 958.258C1352.67 955.467 1349.23 953.113 1344.69 950.03C1349.15 949.375 1352.48 948.889 1356.5 948.304C1354.88 945.34 1353.43 942.673 1351.24 938.637C1355.83 939.287 1358.82 939.703 1361.89 940.136C1361.23 937.112 1360.66 934.564 1360.43 933.525C1358.2 927.656 1356.5 923.22 1354.79 918.741C1357.81 918.373 1360.62 918.503 1362.97 917.556C1364.17 917.075 1365.45 914.441 1365.12 913.142C1363.81 907.825 1361.9 902.648 1360.48 898.293C1363.98 896.075 1367.31 893.966 1370.1 892.191C1368.82 887.653 1367.53 883.081 1365.97 877.585C1370.37 878.84 1373.31 879.668 1377.29 880.804C1375.92 876.071 1374.86 872.441 1373.71 868.459C1377.28 867.908 1380.57 867.399 1384.37 866.82C1379.97 860.204 1376.05 854.302 1371.5 847.459C1376.75 845.723 1379.02 838.62 1386.89 842.234C1388.91 843.164 1392.76 840.341 1396.05 837.804C1384.52 837.614 1378.07 832.442 1376.61 819.995C1380.5 819.059 1385.9 818.156 1390.99 816.398C1395.09 814.986 1398.82 812.541 1402.7 810.556C1402.46 809.885 1402.22 809.214 1401.97 808.549C1398.14 808.998 1394.31 809.447 1390.2 809.928C1386.88 805.514 1383.19 800.618 1379.08 795.149C1383.49 794.343 1386.92 790.448 1392.15 794.565C1393.29 795.468 1398.47 791.536 1403.52 788.944C1397.34 788.014 1393.04 788.387 1390.03 786.651C1386.63 784.687 1384.4 780.819 1380.29 776.27C1387.74 774.609 1394.04 773.208 1400.34 771.812C1400.51 772.516 1400.69 773.23 1400.86 773.938C1402.53 771.683 1404.2 769.427 1406.22 766.695C1400.57 766.105 1394.8 765.505 1388.62 764.861C1393.39 756.785 1397.2 750.336 1401 743.899C1390.42 738.008 1398.59 729.531 1396.42 722.683C1397.18 722.337 1397.92 721.996 1398.67 721.655C1401.75 726.773 1404.83 731.895 1409.09 738.993C1409.47 732.588 1409.73 728.168 1409.99 723.727C1407.64 723.473 1405.78 723.267 1404.71 723.154C1404 720.443 1403.19 718.317 1402.93 716.137C1402.65 713.692 1402.87 711.198 1402.87 708.726C1404.11 707.704 1405.34 706.687 1406.58 705.665C1407.91 708.272 1409.25 710.885 1411.68 715.629C1409.55 709.067 1408.05 704.42 1406.9 700.861C1408.77 698.156 1410.29 695.954 1411.8 693.769C1412.98 698.475 1414.26 703.56 1415.74 709.419C1416.6 709.527 1418.56 709.77 1419.75 709.916C1419.22 717.322 1418.7 724.565 1418.05 733.551C1421.8 731.008 1423.89 729.596 1426.35 727.93C1425.57 734.173 1424.83 740.08 1423.99 746.782C1421.04 748.584 1416.84 751.137 1412.64 753.696C1419.35 756.952 1425.07 753.171 1431.3 751.148C1432.9 752.473 1434.82 754.075 1437.34 756.179C1429.84 760.155 1427.21 772.743 1414.32 765.473C1417.96 777.433 1429.67 768.68 1435.88 775.843C1433.66 779.029 1431.1 782.713 1429.11 785.574C1430.73 787.906 1432.33 790.216 1434.52 793.364C1440.46 794.927 1444.73 791.757 1445.38 784.682C1445.64 781.847 1443.67 778.883 1443.17 775.902C1442.79 773.581 1443.1 771.142 1444.72 767.728C1448.05 771.369 1451.38 775.009 1455.55 779.57C1455.94 775.729 1456.25 772.781 1456.62 769.086C1447.52 769.643 1450.22 762.724 1448.54 756.817C1451.66 758.446 1453.9 759.619 1455.64 760.533C1455.64 756.752 1455.64 752.289 1455.64 747.821C1456.68 747.745 1457.71 747.67 1458.73 747.594C1459.42 752.062 1460.11 756.525 1460.76 760.723C1461.72 760.279 1463.79 759.322 1466.3 758.164C1465.64 764.217 1465.09 769.356 1464.4 775.713C1467.82 774.317 1469.86 773.484 1472.56 772.381C1471.86 776.795 1471.21 780.792 1470.42 785.688C1467.6 787.051 1463.42 789.058 1458.71 791.325C1466.63 795.777 1475.33 784.876 1483.1 792.617C1476.05 796.004 1471.78 804.838 1461.82 799.661C1461.82 800.683 1461.83 801.711 1461.83 802.739C1464.95 802.988 1468.11 803.009 1471.17 803.545C1474.73 804.167 1478.2 805.243 1482.9 806.423C1479.79 809.62 1477.33 812.151 1474.66 814.899C1478.75 817.106 1482.81 819.292 1487.13 821.618C1482.09 825.805 1476.8 830.203 1471.1 834.947C1480.61 839.47 1484.63 838.664 1487.73 832.41C1492.35 832.956 1491.97 832.881 1493.12 827.796C1493.39 826.595 1497.15 826.141 1499.82 825.161C1499.45 824.415 1498.48 822.43 1497.48 820.406C1498.84 819.379 1500.34 818.253 1501.32 817.507C1503.89 820.542 1506.49 823.614 1509.59 827.266C1509.39 829.608 1509.05 833.378 1508.66 837.987C1511.61 837.041 1513.68 836.381 1516.31 835.542C1515.7 839.091 1515.21 841.915 1514.67 845.09C1511.69 846.231 1507.77 847.735 1503.85 849.228L1504.03 850.413C1507.67 850.062 1511.31 849.677 1514.96 849.369C1518.46 849.082 1521.96 848.866 1525.47 848.617C1525.68 849.58 1525.9 850.543 1526.11 851.506C1519.96 853.762 1513.82 856.017 1505.34 859.122C1510.39 859.122 1513.45 858.955 1516.49 859.171C1519.49 859.388 1522.45 859.999 1526.91 860.659C1523.7 863.299 1521.71 864.932 1519.11 867.075C1522.97 868.898 1526.59 870.602 1530.44 872.425C1525.71 875.459 1521.02 878.462 1516.33 881.469C1516.59 882.037 1516.85 882.611 1517.11 883.179C1523.89 883.179 1530.67 883.179 1537.82 883.179C1536.48 880.425 1535.29 877.975 1533.75 874.783C1536.81 874.507 1539.69 874.247 1542.5 873.999C1542.89 874.545 1543.28 875.086 1543.67 875.632C1544.76 874.956 1545.86 874.28 1546.96 873.598C1545.48 873.728 1543.99 873.869 1542.5 873.999C1539.04 869.152 1535.45 864.121 1530.54 857.245C1539.93 855.19 1547.72 853.48 1555.52 851.776C1555.53 851.078 1555.54 850.381 1555.55 849.677C1545.95 850.37 1539.24 846.864 1536.04 837.111C1544.48 834.742 1553.13 832.318 1561.79 829.895C1561.72 828.921 1561.65 827.942 1561.58 826.974C1550.01 831.869 1545.51 823.382 1539.66 817.339C1545.79 811.508 1556.02 821.478 1560.19 813.168C1553.84 810.35 1547.38 807.483 1540.92 804.616C1541.18 803.588 1541.45 802.56 1541.71 801.527C1548.08 800.516 1554.45 799.498 1561.53 798.368C1562.61 794.549 1562.6 794.906 1557.16 794.776C1554.47 794.706 1551.82 793.045 1549.75 792.314C1552.96 787.159 1555.92 782.469 1558.79 777.72C1559.18 777.065 1559.43 775.572 1559.17 775.42C1551.53 770.968 1558.2 764.91 1556.64 759.825C1557.28 759.478 1557.92 759.138 1558.56 758.792C1561.76 762.941 1564.96 767.095 1569.17 772.537C1569.57 767.706 1569.83 764.466 1570.09 761.226C1569.31 761.518 1568.54 761.816 1567.75 762.118C1565.62 757.883 1563.48 753.653 1561.35 749.417C1561.89 748.93 1562.44 748.443 1562.98 747.956C1565.27 749.26 1567.56 750.564 1569.85 751.878C1571.91 747.534 1561.87 741.995 1571.13 738.63C1573.2 742.298 1575.69 746.701 1578.17 751.11L1579.54 749.996C1579.07 755.513 1578.6 761.026 1578.03 767.772C1581.43 766.203 1583.45 765.272 1586.06 764.066C1585.43 769.043 1584.84 773.689 1584.2 778.742C1580.99 780.257 1576.77 782.242 1572.54 784.227C1572.55 784.822 1572.56 785.417 1572.57 786.012C1578.74 785.033 1584.91 784.06 1592.43 782.875C1592.76 783.097 1594.58 784.352 1597.03 786.04C1589.55 789.848 1585.38 799.85 1574.55 793.196C1574.45 794.17 1574.35 795.144 1574.25 796.118C1577.56 796.794 1580.87 797.459 1584.17 798.141C1587.85 798.898 1591.52 799.661 1596.64 800.721C1593.43 804.356 1590.95 807.169 1588.23 810.258C1592.24 812.552 1596.37 814.905 1600.85 817.458C1595.89 821.856 1590.5 826.638 1585.11 831.426C1585.27 832.134 1585.43 832.843 1585.6 833.551C1597.33 832.459 1607.02 845.279 1619.61 837.609C1613.34 835.245 1607.07 832.892 1600.81 830.528C1600.95 829.732 1601.09 828.926 1601.24 828.131C1609.2 826.681 1617.16 825.237 1625.12 823.793C1624.95 823.073 1624.8 822.359 1624.64 821.64C1619.45 821.364 1614.26 821.083 1608.46 820.769C1610 814.553 1619.22 815.332 1617.47 808.424C1617.22 807.434 1616.93 806.417 1616.96 805.411C1617.05 801.57 1617.25 797.73 1617.43 793.883C1624.8 794.435 1623.21 790.156 1622.02 785.969C1621.84 785.352 1622.38 784.541 1622.81 783.118C1625.18 784.357 1627.32 785.482 1628.6 786.153C1628.6 782.664 1628.6 778.488 1628.6 774.306C1629.54 774.241 1630.48 774.176 1631.41 774.111C1632.19 778.125 1632.97 782.139 1633.67 785.785C1634.53 785.504 1636.7 784.795 1638.91 784.076C1638.44 789.404 1638.02 794.019 1637.51 799.655C1640.77 798.352 1642.66 797.6 1645.31 796.534C1644.67 800.678 1644.11 804.275 1643.44 808.586C1640.27 809.95 1636.18 811.697 1632.1 813.444L1632.35 814.716C1639.92 813.974 1647.49 813.233 1655.05 812.492C1655.3 813.634 1655.54 814.775 1655.79 815.922C1649.46 818.664 1643.13 821.407 1636.59 824.236C1641.68 825.01 1648.07 825.978 1656.25 827.228C1652.76 830.371 1650.51 832.399 1647.65 834.974C1650.96 836.543 1654.13 838.539 1657.61 839.534C1660.26 840.292 1660.43 839.735 1660.2 835.71C1660.04 832.967 1668.54 826.443 1671.17 827.092C1671.95 827.287 1672.98 826.546 1673.9 826.227C1671.27 821.245 1674.79 819.801 1678.39 817.539C1680.23 816.382 1680.51 812.898 1681.54 810.377C1684.92 814.575 1687.52 817.804 1690.89 821.975C1690.72 823.939 1690.4 827.736 1690.03 832.183C1692.77 831.296 1694.94 830.587 1697.42 829.781C1696.94 836.494 1696.1 842.456 1688.32 844.409C1694.6 843.992 1700.88 843.57 1707.16 843.148C1707.3 843.824 1707.45 844.495 1707.6 845.166C1704.16 847.47 1700.72 849.775 1696.29 852.745C1700.19 853.935 1703.09 854.822 1706.91 855.99C1705.3 857.862 1703.92 859.474 1701.87 861.854C1704.97 863.629 1708.02 865.371 1711.61 867.432C1707.1 870.299 1702.35 873.312 1696.87 876.795C1704.47 879.159 1710.53 881.047 1717.06 883.087C1715.22 879.214 1713.89 876.422 1712.4 873.258C1717.51 872.619 1721.97 872.062 1725.72 871.592C1720.39 865.922 1715.56 860.783 1709.85 854.714C1715.58 852.274 1718.4 846.632 1725.63 849.537C1727.87 850.44 1731.57 847.93 1734.7 845.75C1724.79 844.565 1717.07 841.601 1715.49 829.851C1723.41 827.406 1732.35 824.647 1741.27 821.888C1741.06 821.012 1740.85 820.136 1740.64 819.259C1736.94 819.503 1733.23 819.746 1729.19 820.017C1725.84 816.068 1722.11 811.665 1718.38 807.256C1718.54 806.58 1718.71 805.903 1718.88 805.227C1722.93 805.638 1727.05 806.709 1731 806.26C1734.3 805.882 1737.4 803.734 1739.65 802.771C1732.9 799.352 1726.53 796.139 1720.17 792.915C1720.35 791.768 1720.52 790.621 1720.7 789.474C1727.16 788.241 1733.62 787.008 1741.49 785.509C1741.31 784.53 1740.8 781.912 1740.67 781.209C1735.8 780.527 1732.37 780.046 1728.17 779.456C1732.68 772.413 1736.46 766.506 1740.26 760.55C1730.13 755.259 1737.91 747.367 1735.66 741.162C1736.36 740.837 1737.07 740.518 1737.77 740.194C1740.98 745.014 1744.18 749.833 1748.14 755.784C1748.83 750.634 1749.33 746.836 1749.87 742.736C1747.29 742.276 1745.22 741.903 1743.86 741.665C1743.06 736.937 1742.36 732.777 1741.37 726.854C1744.85 729.558 1747.29 731.446 1750.56 733.989C1749.05 729.353 1747.76 725.447 1746.63 721.98C1748.28 719.616 1749.83 717.387 1751.77 714.612C1752.44 720.898 1753.07 726.773 1753.63 731.944C1754.5 731.495 1756.83 730.31 1759.2 729.104C1758.56 736.618 1758 743.223 1757.3 751.408C1761 749.044 1762.94 747.799 1765.65 746.063C1764.81 751.997 1764.06 757.304 1763.22 763.179C1760.14 764.953 1756 767.339 1751.24 770.081C1759.43 775.529 1768.48 761.626 1776.03 772.056C1768.89 775.718 1765.22 787.159 1753.42 779.726C1757.03 791.655 1768.65 782.934 1775.1 789.653C1772.81 792.525 1770.32 795.658 1767.49 799.212C1771.32 801.981 1775.37 804.913 1779.68 808.035C1774.93 812.849 1769.41 818.443 1762.28 825.67C1769.53 826.963 1774.63 827.872 1780.99 829.002C1777.54 833.66 1774.55 837.701 1771.14 842.32C1774.81 842.32 1778.05 842.32 1781.28 842.32C1781.68 843.099 1782.08 843.878 1782.48 844.657C1778.44 847.14 1774.39 849.591 1770.38 852.133C1769.59 852.642 1768.32 853.691 1768.46 854.113C1768.92 855.466 1769.63 857.181 1770.78 857.797C1775.56 860.367 1780.54 862.579 1785.8 865.105C1786.32 862.428 1786.73 860.199 1787.47 856.331C1791.49 859.453 1794.87 862.087 1799.02 865.311C1799.6 862.844 1800.07 860.789 1800.22 860.172C1797.4 857.337 1795.43 855.59 1793.82 853.572C1793.37 853.004 1793.98 851.63 1794.11 850.63C1796.13 850.905 1798.15 851.17 1800.58 851.506C1799.5 849.418 1798.45 847.389 1797.46 845.485C1798.81 844.495 1800.13 843.527 1801.36 842.618C1803.75 845.382 1806.51 848.585 1809.47 852.009C1809.19 854.703 1808.82 858.317 1808.37 862.633C1811.25 862.049 1813.15 861.665 1816.1 861.07C1815.35 863.807 1814.85 865.657 1814.03 868.708C1818.99 868.476 1823.83 868.335 1828.65 867.859C1829.06 867.821 1829.25 865.565 1829.42 864.873C1825.51 864.516 1821.93 864.202 1816.16 863.683C1820.3 860.87 1822.72 859.728 1824.39 857.932C1825.81 856.396 1827.38 853.951 1827.11 852.177C1826.55 848.72 1824.75 845.452 1822.99 840.865C1832.04 843.045 1836.74 843.532 1837.2 843.792C1834.85 840.589 1832.97 838.031 1831.09 835.472C1833.28 835.034 1835.47 834.596 1837.92 834.103C1837.34 833.048 1836.37 831.29 1835.79 830.214C1836.9 828.791 1837.86 827.444 1839 826.259C1839.11 826.14 1840.24 827.168 1840.98 827.341C1846.39 828.618 1852 832.021 1856.4 826.763C1850.43 824.29 1844.22 821.726 1838.02 819.162C1838.14 818.259 1838.26 817.361 1838.38 816.458C1844.57 815.516 1850.76 814.564 1856.94 813.617C1857.07 814.137 1857.18 814.656 1857.31 815.181C1858.97 813.401 1860.63 811.616 1862.45 809.668C1856.8 809.376 1851.46 809.1 1846.11 808.824C1849.62 803.648 1852.47 799.542 1855.2 795.36C1855.56 794.792 1855.59 793.813 1855.4 793.126C1854.73 790.751 1853.38 788.441 1853.28 786.061C1853.19 783.984 1854.42 781.842 1855.07 779.726C1856.83 781.046 1858.79 782.177 1860.28 783.735C1861.83 785.369 1862.94 787.424 1865.5 791.092C1866.19 786.251 1866.56 783.54 1866.63 783.059C1863.2 778.845 1860.89 776.318 1859.05 773.505C1858.7 772.965 1860.35 770.265 1860.74 770.336C1862.7 770.687 1864.54 771.623 1867.26 772.683C1866.09 769.676 1864.93 766.689 1863.99 764.277C1865.51 762.578 1866.9 761.015 1868.49 759.23C1869.41 763.595 1870.31 767.874 1871.14 771.807C1872.19 771.369 1874.2 770.541 1876.41 769.627C1875.8 775.307 1875.27 780.289 1874.6 786.532C1878.17 785.033 1880.23 784.173 1882.8 783.097C1882.03 787.435 1881.31 791.46 1880.5 796.036C1877.3 797.421 1873.27 799.158 1869.25 800.894C1869.22 801.392 1869.2 801.884 1869.17 802.382C1877 801.603 1884.82 800.824 1892.65 800.05C1892.79 800.943 1892.92 801.835 1893.06 802.728C1886.39 806.017 1881.82 814.699 1871.71 809.106C1871.67 810.079 1871.63 811.059 1871.59 812.038C1874.83 812.46 1878.08 812.757 1881.28 813.336C1884.8 813.969 1888.26 814.851 1893.42 815.998C1890.02 819.13 1887.62 821.337 1884.87 823.858C1888.88 826.048 1892.83 828.212 1897.15 830.587C1892.29 834.541 1887.19 838.685 1880.15 844.409C1887.47 845.388 1892.39 846.048 1898.77 846.902C1895.22 850.548 1892.59 853.269 1889.48 856.483C1892.52 856.84 1895.36 857.175 1899.6 857.673C1895.18 861.692 1893.31 867.448 1886.16 863.558C1886.33 871.5 1892.51 870.623 1898.74 871.759C1897.6 869.936 1896.94 868.871 1895.47 866.534C1904.25 864.608 1912.62 862.763 1921 860.924C1920.91 860.286 1920.82 859.642 1920.74 859.004C1916.69 858.825 1912.23 859.609 1908.7 858.203C1905.09 856.764 1902.39 853.172 1897.73 849.18C1906.7 848.79 1913.16 848.504 1919.61 848.228L1919.44 846.973C1913.48 844.527 1907.51 842.088 1901.56 839.643C1901.7 838.837 1901.86 838.031 1902.01 837.225C1909.91 835.953 1917.82 834.688 1925.72 833.411C1925.62 832.697 1925.52 831.988 1925.42 831.274C1920.09 830.874 1914.75 830.468 1907.26 829.906C1911.34 826.665 1913.67 825.113 1915.61 823.192C1918.14 820.704 1920.82 818.686 1917.06 814.294C1915.35 812.287 1917.31 807.294 1917.6 803.653C1919.85 805.249 1922.17 806.758 1924.32 808.473C1925.52 809.447 1926.44 810.767 1928.68 813.26C1929.35 809.349 1929.79 806.763 1930.24 804.183C1929.58 804.491 1928.93 804.8 1928.27 805.103C1925.94 801.641 1923.6 798.179 1921.27 794.711C1921.92 794.143 1922.58 793.57 1923.23 793.002C1925.36 794.089 1927.49 795.176 1930.65 796.788C1929.32 793.689 1928.19 791.081 1927.2 788.809C1928.61 787.327 1929.91 785.937 1931.61 784.141C1932.65 787.938 1933.69 791.79 1934.68 795.436C1935.35 795.192 1937.35 794.473 1939.52 793.683C1938.99 798.909 1938.5 803.734 1937.86 810.009C1941.61 808.186 1943.45 807.288 1946.22 805.936C1945.31 810.377 1944.55 814.121 1943.69 818.297C1940.55 819.6 1936.6 821.234 1932.63 822.873C1932.7 823.403 1932.76 823.923 1932.82 824.447C1936.69 823.923 1940.54 823.3 1944.41 822.911C1947.96 822.543 1951.54 822.435 1955.42 823.366C1949.44 828.38 1944.43 835.564 1934.65 830.414C1934.65 831.393 1934.66 832.378 1934.67 833.357C1941.44 834.374 1948.21 835.391 1956.61 836.657C1953.18 839.697 1950.77 841.844 1948.05 844.257C1952.21 846.258 1956.23 848.195 1960.46 850.229C1955.64 853.973 1950.64 857.862 1945.64 861.746C1946.05 862.79 1946.47 863.839 1946.88 864.894C1958.37 863.266 1969.86 861.638 1981.35 860.015C1981.26 859.404 1981.16 858.792 1981.07 858.176C1976.26 857.786 1971.44 857.397 1964.57 856.84C1968.66 853.935 1971.16 852.572 1973.08 850.662C1974.8 848.969 1978.36 847.443 1974.02 844.041C1972.58 842.905 1973.88 838.474 1973.92 835.548C1976.2 836.473 1978.69 837.095 1980.68 838.42C1982.12 839.378 1982.91 841.26 1985.03 844.16C1986.03 839.865 1986.52 837.695 1986.53 837.652C1983.1 833.973 1980.78 831.49 1978.46 829.007C1979.04 828.234 1979.6 827.466 1980.17 826.692C1982.35 827.363 1984.52 828.039 1986.66 828.699C1988.08 825.6 1978.71 821.499 1988.41 819.53C1989.21 821.678 1990.35 824.707 1991.41 827.547C1992.59 827.428 1994.45 827.233 1996.12 827.055C1995.66 831.393 1995.24 835.223 1994.74 839.924C1997.97 838.842 1999.95 838.182 2002.66 837.273C2001.87 840.909 2002.19 845.036 2000.22 847.016C1997.92 849.342 1993.63 849.791 1990.39 852.214C1997.64 851.554 2004.89 850.895 2012.14 850.235C2012.24 850.933 2012.33 851.63 2012.43 852.328C2008.68 854.54 2004.93 856.758 1999.38 860.037C2008.17 861.265 2015.31 862.26 2023.2 863.364C2021.44 858.755 2020.08 855.174 2018.77 851.733C2023.8 851.106 2028.2 850.548 2031.52 850.137C2026.54 843.846 2021.98 838.371 2017.92 832.567C2017.46 831.912 2019.7 828.061 2020.91 827.958C2024.82 827.633 2027.52 821.715 2032.68 825.854C2033.76 826.719 2037.98 823.885 2041 821.51C2029.64 820.942 2023.61 815.197 2021.19 804.908C2027.66 797.335 2041.68 803.356 2047.51 791.936C2042.86 792.509 2038.87 793.002 2035.29 793.44C2031.62 788.533 2028.02 783.73 2024 778.369C2028.53 778.228 2031.92 774.479 2037.07 777.893C2038.66 778.937 2043.84 774.831 2047.18 771.877C2036.06 774.88 2031.69 767.295 2025.52 759.706C2032.68 758.153 2039.08 756.763 2045.48 755.373C2045.62 756.027 2045.76 756.677 2045.9 757.326C2047.62 755.102 2049.34 752.879 2051.44 750.136C2045.57 749.644 2039.88 749.163 2033.46 748.622C2038.21 740.653 2042 734.33 2045.9 727.806C2036.22 721.855 2043.29 713.611 2042.82 705.897C2044.73 708.142 2046.92 710.219 2048.49 712.67C2050.15 715.245 2051.22 718.177 2054.57 720.762C2054.77 716.527 2054.96 712.291 2055.17 707.601C2053.02 707.304 2051.09 707.038 2049.57 706.833C2048.77 701.65 2048.06 696.933 2047.06 690.447C2050.37 693.163 2052.69 695.073 2055.82 697.653C2054.42 692.763 2053.17 688.419 2052.12 684.767C2053.67 682.441 2055.08 680.337 2056.64 678C2056.89 679.617 2056.89 681.608 2057.58 683.35C2058.07 684.573 2059.47 685.449 2060.69 686.704C2059.84 689.901 2058.84 693.644 2057.79 697.604C2060.31 695.689 2062.43 694.077 2064.86 692.243C2064.23 700.78 2063.68 708.126 2063 717.403C2066.7 714.812 2068.53 713.535 2071.11 711.723C2070.45 717.895 2069.84 723.456 2069.09 730.332C2066.28 732.063 2061.78 734.827 2057.38 737.532C2061.78 740.929 2069.34 739.761 2076.01 734.378C2077.9 736.039 2079.77 737.7 2082.11 739.788C2074.54 743.196 2072.66 757.65 2058.98 750.05C2060.83 752.289 2062.68 754.524 2063.1 755.027C2070.16 755.995 2075.3 756.698 2082.23 757.645C2078.7 762.697 2076.12 766.387 2073.52 770.114C2077.24 773.056 2081.32 776.286 2085.63 779.7C2080.63 785.298 2075.15 791.438 2068.24 799.19C2075.36 800.607 2080.55 801.641 2087.26 802.977C2083.55 808.197 2080.46 812.535 2077.17 817.161C2080.42 817.312 2083.69 817.458 2088.39 817.675C2084.48 823.036 2083.32 829.375 2074.72 828.456C2073.66 840.01 2088.73 835.358 2090.78 844.295C2084.14 854.368 2084.14 854.368 2068.46 852.117C2071.54 854.254 2074.61 856.385 2077.9 858.663C2077.25 859.902 2076.56 861.211 2075.64 862.952C2082.73 864.051 2089.58 865.122 2096.34 866.166C2095.58 881.366 2079.93 878.592 2072.62 886.095C2079.51 892.857 2087.89 891.125 2096.88 890.179C2094.95 893.944 2093.79 897.985 2091.19 900.771C2088.37 903.811 2084.21 905.688 2080.64 908.068C2080.61 908.879 2080.59 909.691 2080.56 910.502C2088.79 912.45 2097.01 914.386 2105.86 916.48C2102.18 922.771 2099.03 928.159 2095.14 934.807C2095.68 935.148 2097.93 936.56 2101 938.486C2097.4 942.413 2093.9 946.216 2090.26 950.165C2095.12 952.237 2104.04 947.98 2104.16 958.939C2099.87 961.65 2094.24 965.209 2088.29 968.974C2088.65 969.109 2090.39 970.456 2091.85 970.202C2098.51 969.05 2102.73 970.813 2103.82 977.851C2103.94 978.646 2105.89 979.177 2107 979.831C2107 980.35 2107 980.881 2107 981.411C2101.74 984.067 2095.61 985.143 2093.24 991.943C2090.07 1001 2076.51 1003.84 2068.96 997.277C2065.03 993.858 2061.63 989.861 2056.57 984.662C2057.31 992.684 2057.94 999.43 2058.59 1006.56C2054.77 1006.56 2051.4 1006.56 2047.43 1006.56C2047.83 1002.09 2048.2 998.061 2048.63 993.42C2037.03 1003.79 2032.76 1001.54 2028.2 996.85C2013.12 1000.05 2001.1 994.129 1988.32 986.182C1989 990.829 1989.52 994.302 1990.08 998.164C1986.54 998.164 1983.37 998.164 1979.73 998.164C1979.73 995.941 1979.73 993.793 1979.73 991.597C1963.75 996.514 1948.14 996.768 1932.03 988.265C1932.62 992.289 1933.01 994.983 1933.5 998.326C1929.72 998.326 1926.2 998.326 1922.37 998.326C1922.69 995.605 1922.99 993.079 1923.42 989.482C1916.62 994.788 1910.28 993.155 1903.19 993.003C1894.31 992.819 1883.49 988.952 1874.8 997.91C1868.45 1004.46 1859.07 1002.38 1850.75 999.576C1847.99 998.651 1845.13 997.969 1842.32 997.174C1842.07 997.986 1841.8 998.797 1841.54 999.614C1843.91 1001.07 1846.28 1002.53 1848.58 1003.96C1847.11 1008.78 1833.29 1017.4 1827.88 1017.83C1818.44 1018.59 1810.36 1015.86 1801.81 1008.2C1802.57 1013.75 1803.03 1017.14 1803.56 1020.99C1799.99 1020.99 1796.87 1020.99 1793.18 1020.99C1793.29 1018.87 1793.38 1016.97 1793.48 1014.92C1775.57 1020.98 1758.51 1014.18 1740.75 1013.93C1741.11 1009.58 1741.43 1005.78 1741.78 1001.55C1731.56 1009.63 1727.2 1010.09 1721.24 1004.07C1713.56 1007.25 1706.59 1005.83 1699.9 1001.32C1698.5 1000.38 1696.39 1000.43 1694.6 1000.04C1686.71 998.343 1678.82 996.639 1670.4 994.827C1670.56 996.39 1670.9 999.754 1671.27 1003.47C1668.07 1003.47 1664.9 1003.47 1661.19 1003.47C1661.01 1001.47 1660.82 999.517 1660.79 999.03C1652.56 999.03 1644.76 999.419 1637.01 998.921C1629.59 998.445 1622.23 997.055 1614.84 996.071C1614.86 995.189 1614.86 994.312 1614.87 993.436C1617.06 992.717 1619.26 991.997 1621.58 991.24C1617.94 985.722 1612.72 985.062 1605.44 988.795C1592.95 995.2 1584.42 993.458 1575.1 982.59C1574.6 982.011 1574.14 981.411 1571.66 981.048C1572.26 986.187 1572.88 991.332 1573.56 997.044C1569.89 997.044 1566.3 997.044 1562.51 997.044C1562.82 993.588 1563.09 990.526 1563.47 986.306C1556.89 991.84 1550.85 995.989 1543.45 989.557C1542.83 989.022 1540.91 989.541 1539.77 989.985C1526.7 995.037 1514.52 994.307 1502.17 983.234C1502.71 988.362 1503.06 991.721 1503.52 996.092C1500.44 996.265 1497.4 996.428 1493.71 996.633C1493.5 994.139 1493.32 992.013 1493.15 989.898C1492.55 989.828 1492.04 989.677 1491.57 989.736C1486.24 990.38 1480.91 991.435 1475.56 991.608C1470.65 991.77 1465.69 990.753 1460.78 990.915C1460.23 990.937 1459.83 995.265 1459.84 997.542C1457.34 1003.39 1447.06 1002.07 1446.98 1011.76C1446.97 1013.45 1439.89 1016.02 1435.87 1016.51C1431.72 1017.02 1427.17 1015.94 1423.05 1014.74C1415.22 1012.47 1412.68 1014.94 1414.17 1024C1410.39 1024 1406.6 1024 1402.81 1024C1402.81 1019.86 1402.81 1015.72 1402.81 1011.34C1399.93 1013.73 1397.42 1017.35 1394.25 1018.02C1390.86 1018.74 1386.84 1016.67 1383.17 1016.31C1369.54 1014.44 1355.92 1012.56 1342.29 1010.7C1342.32 1009.74 1342.34 1008.79 1342.37 1007.84C1344.97 1007.12 1347.57 1006.4 1350.77 1005.52Z" fill="url(#paint19_linear_9_36)"/>
</g>
<defs>
<filter id="filter0_f_9_36" x="621" y="102" width="688" height="688" filterUnits="userSpaceOnUse" color-interpolation-filters="sRGB">
<feFlood flood-opacity="0" result="BackgroundImageFix"/>
<feBlend mode="normal" in="SourceGraphic" in2="BackgroundImageFix" result="shape"/>
<feGaussianBlur stdDeviation="72" result="effect1_foregroundBlur_9_36"/>
</filter>
<filter id="filter1_f_9_36" x="552" y="590" width="816" height="162.86" filterUnits="userSpaceOnUse" color-interpolation-filters="sRGB">
<feFlood flood-opacity="0" result="BackgroundImageFix"/>
<feBlend mode="normal" in="SourceGraphic" in2="BackgroundImageFix" result="shape"/>
<feGaussianBlur stdDeviation="4" result="effect1_foregroundBlur_9_36"/>
</filter>
<linearGradient id="paint0_linear_9_36" x1="984" y1="-59.5" x2="975" y2="757" gradientUnits="userSpaceOnUse">
<stop stop-color="#6D4869"/>
<stop offset="0.12881" stop-color="#906074"/>
<stop offset="0.304988" stop-color="#D58480"/>
<stop offset="0.519121" stop-color="#ECA58B"/>
<stop offset="1" stop-color="#F8C995"/>
</linearGradient>
<linearGradient id="paint1_linear_9_36" x1="1342" y1="285.18" x2="1342" y2="422.96" gradientUnits="userSpaceOnUse">
<stop stop-color="#F8E7C7"/>
<stop offset="1" stop-color="#FCECDC" stop-opacity="0"/>
</linearGradient>
<linearGradient id="paint2_linear_9_36" x1="1562.5" y1="35" x2="1562.5" y2="467" gradientUnits="userSpaceOnUse">
<stop stop-color="#E09D95"/>
<stop offset="1" stop-color="#E09D95" stop-opacity="0"/>
</linearGradient>
<linearGradient id="paint3_linear_9_36" x1="694" y1="-40.5" x2="694" y2="125.5" gradientUnits="userSpaceOnUse">
<stop stop-color="#FADCD1"/>
<stop offset="1" stop-color="white" stop-opacity="0"/>
</linearGradient>
<radialGradient id="paint4_radial_9_36" cx="0" cy="0" r="1" gradientUnits="userSpaceOnUse" gradientTransform="translate(989.324 560.414) rotate(-85.7394) scale(315.286 495.399)">
<stop offset="0.0166223" stop-color="#F7E8C2"/>
<stop offset="0.465176" stop-color="#FFF2EA"/>
<stop offset="1" stop-color="#F4BBAF"/>
</radialGradient>
<radialGradient id="paint5_radial_9_36" cx="0" cy="0" r="1" gradientUnits="userSpaceOnUse" gradientTransform="translate(989.324 560.414) rotate(-85.7394) scale(315.286 495.399)">
<stop offset="0.0166223" stop-color="#F7E8C2"/>
<stop offset="0.465176" stop-color="#FFF2EA"/>
<stop offset="1" stop-color="#F4BBAF"/>
</radialGradient>
<linearGradient id="paint6_linear_9_36" x1="413.75" y1="89" x2="414" y2="329" gradientUnits="userSpaceOnUse">
<stop stop-color="#FDBBB4"/>
<stop offset="1" stop-color="#E89E98" stop-opacity="0"/>
</linearGradient>
<linearGradient id="paint7_linear_9_36" x1="626" y1="361.5" x2="693.918" y2="648.216" gradientUnits="userSpaceOnUse">
<stop offset="0.0809758" stop-color="#DD8E7F"/>
<stop offset="0.929534" stop-color="#EEB39B"/>
</linearGradient>
<linearGradient id="paint8_linear_9_36" x1="1018" y1="546" x2="1017.31" y2="665.496" gradientUnits="userSpaceOnUse">
<stop stop-color="#E0998C"/>
<stop offset="1" stop-color="#E2C0A0"/>
</linearGradient>
<linearGradient id="paint9_linear_9_36" x1="1739.5" y1="360" x2="1697" y2="650.5" gradientUnits="userSpaceOnUse">
<stop offset="0.0656232" stop-color="#704D6F"/>
<stop offset="0.902904" stop-color="#BA7376"/>
</linearGradient>
<linearGradient id="paint10_linear_9_36" x1="292.5" y1="350" x2="435.707" y2="991.965" gradientUnits="userSpaceOnUse">
<stop stop-color="#654F70"/>
<stop offset="0.637287" stop-color="#CA7B77"/>
</linearGradient>
<linearGradient id="paint11_linear_9_36" x1="263" y1="480" x2="445.5" y2="970.5" gradientUnits="userSpaceOnUse">
<stop stop-color="#684567"/>
<stop offset="0.67272" stop-color="#9A6774"/>
</linearGradient>
<linearGradient id="paint12_linear_9_36" x1="891.5" y1="585" x2="877.966" y2="1205.78" gradientUnits="userSpaceOnUse">
<stop stop-color="#B07072"/>
<stop offset="0.381031" stop-color="#573C6B"/>
</linearGradient>
<linearGradient id="paint13_linear_9_36" x1="1475.93" y1="524.017" x2="1150.92" y2="1347.73" gradientUnits="userSpaceOnUse">
<stop stop-color="#6F4C6E"/>
<stop offset="0.616919" stop-color="#A36874"/>
</linearGradient>
<linearGradient id="paint14_linear_9_36" x1="1071" y1="694" x2="1052.88" y2="1036.09" gradientUnits="userSpaceOnUse">
<stop stop-color="#A76E7C"/>
<stop offset="0.840389" stop-color="#2C245A"/>
</linearGradient>
<linearGradient id="paint15_linear_9_36" x1="1441.77" y1="666" x2="1440.75" y2="1094.51" gradientUnits="userSpaceOnUse">
<stop stop-color="#403960"/>
<stop offset="0.648103" stop-color="#715164"/>
<stop offset="1" stop-color="#845B67"/>
</linearGradient>
<linearGradient id="paint16_linear_9_36" x1="481.5" y1="613" x2="471" y2="1106.5" gradientUnits="userSpaceOnUse">
<stop stop-color="#493D5F"/>
<stop offset="1" stop-color="#885D67"/>
</linearGradient>
<linearGradient id="paint17_linear_9_36" x1="1723" y1="1024" x2="1723" y2="585" gradientUnits="userSpaceOnUse">
<stop stop-color="#1C1C46"/>
<stop offset="1" stop-color="#283762"/>
</linearGradient>
<linearGradient id="paint18_linear_9_36" x1="1723" y1="1024" x2="1723" y2="585" gradientUnits="userSpaceOnUse">
<stop stop-color="#1C1C46"/>
<stop offset="1" stop-color="#283762"/>
</linearGradient>
<linearGradient id="paint19_linear_9_36" x1="1723" y1="1024" x2="1723" y2="585" gradientUnits="userSpaceOnUse">
<stop stop-color="#1C1C46"/>
<stop offset="1" stop-color="#283762"/>
</linearGradient>
<clipPath id="clip0_9_36">
<rect width="1920" height="1080" fill="white" transform="translate(0 -60)"/>
</clipPath>
</defs>
</svg>
