<svg width="150" height="48" viewBox="0 0 150 48" fill="none" xmlns="http://www.w3.org/2000/svg">
<path d="M62.5977 35.2597C61.4392 35.2597 60.3982 35.0582 59.4748 34.6552C58.5681 34.2355 57.8545 33.6646 57.334 32.9426C56.8135 32.2039 56.5449 31.356 56.5281 30.3989H58.971C59.055 31.2216 59.3908 31.9184 59.9785 32.4893C60.5829 33.0434 61.456 33.3204 62.5977 33.3204C63.6891 33.3204 64.5454 33.0518 65.1666 32.5145C65.8046 31.9604 66.1236 31.2552 66.1236 30.3989C66.1236 29.7273 65.939 29.1816 65.5696 28.7619C65.2002 28.3421 64.7385 28.0231 64.1844 27.8049C63.6303 27.5866 62.8831 27.3515 61.9429 27.0997C60.7844 26.7974 59.8525 26.4952 59.1473 26.193C58.4589 25.8908 57.8629 25.4207 57.3592 24.7826C56.8723 24.1278 56.6288 23.2547 56.6288 22.1634C56.6288 21.2063 56.8723 20.3584 57.3592 19.6197C57.8461 18.8809 58.5261 18.31 59.3992 17.9071C60.2891 17.5041 61.3049 17.3026 62.4466 17.3026C64.092 17.3026 65.4352 17.714 66.4762 18.5367C67.534 19.3594 68.1301 20.4508 68.2644 21.8108H65.7459C65.6619 21.1392 65.3093 20.5515 64.6881 20.0478C64.0669 19.5273 63.2441 19.2671 62.2199 19.2671C61.2629 19.2671 60.4822 19.5189 59.8777 20.0226C59.2733 20.5095 58.971 21.1979 58.971 22.0878C58.971 22.7258 59.1473 23.2463 59.4999 23.6493C59.8693 24.0523 60.3143 24.3629 60.8348 24.5812C61.372 24.7826 62.1192 25.0177 63.0762 25.2863C64.2348 25.6053 65.1666 25.9244 65.8718 26.2434C66.577 26.5456 67.1814 27.0241 67.6851 27.6789C68.1888 28.317 68.4407 29.19 68.4407 30.2982C68.4407 31.1545 68.214 31.9604 67.7607 32.716C67.3073 33.4715 66.6357 34.0844 65.7459 34.5545C64.856 35.0246 63.8066 35.2597 62.5977 35.2597ZM77.8326 35.31C76.5397 35.31 75.3644 35.0162 74.3067 34.4286C73.2657 33.8409 72.443 33.0098 71.8385 31.9352C71.2509 30.8439 70.957 29.5846 70.957 28.1574C70.957 26.7471 71.2593 25.5046 71.8637 24.43C72.4849 23.3387 73.3244 22.5076 74.3822 21.9367C75.44 21.3491 76.6237 21.0552 77.9333 21.0552C79.243 21.0552 80.4267 21.3491 81.4844 21.9367C82.5422 22.5076 83.3733 23.3303 83.9778 24.4049C84.599 25.4794 84.9096 26.7303 84.9096 28.1574C84.9096 29.5846 84.5906 30.8439 83.9526 31.9352C83.3314 33.0098 82.4835 33.8409 81.4089 34.4286C80.3343 35.0162 79.1422 35.31 77.8326 35.31ZM77.8326 33.2952C78.6553 33.2952 79.4277 33.1021 80.1496 32.716C80.8716 32.3298 81.4509 31.7505 81.8874 30.9782C82.3407 30.2058 82.5674 29.2656 82.5674 28.1574C82.5674 27.0493 82.3491 26.1091 81.9126 25.3367C81.476 24.5644 80.9052 23.9935 80.2 23.6241C79.4948 23.2379 78.7309 23.0449 77.9081 23.0449C77.0686 23.0449 76.2963 23.2379 75.5911 23.6241C74.9027 23.9935 74.3486 24.5644 73.9289 25.3367C73.5091 26.1091 73.2993 27.0493 73.2993 28.1574C73.2993 29.2824 73.5007 30.231 73.9037 31.0034C74.3235 31.7757 74.8775 32.355 75.5659 32.7412C76.2543 33.1105 77.0099 33.2952 77.8326 33.2952ZM90.2148 16.4463V35.0834H87.923V16.4463H90.2148ZM93.2646 28.1323C93.2646 26.7219 93.55 25.4878 94.1209 24.43C94.6918 23.3555 95.4725 22.5244 96.4631 21.9367C97.4705 21.3491 98.5871 21.0552 99.8128 21.0552C101.022 21.0552 102.071 21.3155 102.961 21.836C103.851 22.3565 104.514 23.0113 104.951 23.8004V21.2819H107.268V35.0834H104.951V32.5145C104.497 33.3204 103.817 33.992 102.911 34.5293C102.021 35.0498 100.98 35.31 99.7876 35.31C98.5619 35.31 97.4538 35.0078 96.4631 34.4034C95.4725 33.7989 94.6918 32.951 94.1209 31.8597C93.55 30.7683 93.2646 29.5258 93.2646 28.1323ZM104.951 28.1574C104.951 27.1165 104.741 26.2098 104.321 25.4374C103.901 24.6651 103.33 24.0774 102.608 23.6745C101.903 23.2547 101.122 23.0449 100.266 23.0449C99.4098 23.0449 98.6291 23.2463 97.9239 23.6493C97.2187 24.0523 96.6562 24.6399 96.2365 25.4123C95.8167 26.1846 95.6068 27.0913 95.6068 28.1323C95.6068 29.19 95.8167 30.1135 96.2365 30.9026C96.6562 31.675 97.2187 32.271 97.9239 32.6908C98.6291 33.0937 99.4098 33.2952 100.266 33.2952C101.122 33.2952 101.903 33.0937 102.608 32.6908C103.33 32.271 103.901 31.675 104.321 30.9026C104.741 30.1135 104.951 29.1984 104.951 28.1574ZM113.432 23.5234C113.835 22.7342 114.406 22.1214 115.145 21.6849C115.901 21.2483 116.816 21.03 117.89 21.03V23.3974H117.286C114.717 23.3974 113.432 24.791 113.432 27.5782V35.0834H111.141V21.2819H113.432V23.5234ZM121.72 19.0404C121.283 19.0404 120.914 18.8893 120.611 18.5871C120.309 18.2849 120.158 17.9155 120.158 17.4789C120.158 17.0424 120.309 16.673 120.611 16.3708C120.914 16.0686 121.283 15.9174 121.72 15.9174C122.139 15.9174 122.492 16.0686 122.777 16.3708C123.08 16.673 123.231 17.0424 123.231 17.4789C123.231 17.9155 123.08 18.2849 122.777 18.5871C122.492 18.8893 122.139 19.0404 121.72 19.0404ZM122.828 21.2819V35.0834H120.536V21.2819H122.828ZM131.62 35.31C130.562 35.31 129.613 35.1337 128.774 34.7812C127.934 34.4118 127.271 33.9081 126.784 33.27C126.297 32.6152 126.029 31.8681 125.978 31.0286H128.346C128.413 31.717 128.732 32.2794 129.303 32.716C129.89 33.1525 130.654 33.3708 131.595 33.3708C132.468 33.3708 133.156 33.1777 133.66 32.7915C134.163 32.4053 134.415 31.9184 134.415 31.3308C134.415 30.7263 134.147 30.2814 133.609 29.996C133.072 29.6937 132.241 29.3999 131.116 29.1145C130.092 28.8458 129.252 28.5772 128.597 28.3086C127.959 28.0231 127.405 27.6118 126.935 27.0745C126.482 26.5204 126.255 25.7984 126.255 24.9086C126.255 24.2034 126.465 23.557 126.885 22.9693C127.305 22.3816 127.901 21.9199 128.673 21.5841C129.445 21.2315 130.327 21.0552 131.317 21.0552C132.845 21.0552 134.079 21.4414 135.02 22.2137C135.96 22.9861 136.464 24.0439 136.531 25.3871H134.239C134.189 24.6651 133.895 24.0858 133.357 23.6493C132.837 23.2128 132.132 22.9945 131.242 22.9945C130.419 22.9945 129.764 23.1708 129.277 23.5234C128.791 23.876 128.547 24.3377 128.547 24.9086C128.547 25.3619 128.69 25.7397 128.975 26.0419C129.277 26.3273 129.647 26.5624 130.083 26.7471C130.537 26.915 131.158 27.1081 131.947 27.3263C132.938 27.595 133.744 27.8636 134.365 28.1323C134.986 28.3841 135.515 28.7703 135.952 29.2908C136.405 29.8113 136.64 30.4913 136.657 31.3308C136.657 32.0863 136.447 32.7663 136.027 33.3708C135.607 33.9752 135.011 34.4537 134.239 34.8063C133.483 35.1421 132.61 35.31 131.62 35.31ZM142.864 17.5293L142.587 30.1219H140.673L140.396 17.5293H142.864ZM141.731 35.2345C141.294 35.2345 140.925 35.0834 140.622 34.7812C140.32 34.4789 140.169 34.1095 140.169 33.673C140.169 33.2365 140.32 32.8671 140.622 32.5649C140.925 32.2626 141.294 32.1115 141.731 32.1115C142.15 32.1115 142.503 32.2626 142.788 32.5649C143.091 32.8671 143.242 33.2365 143.242 33.673C143.242 34.1095 143.091 34.4789 142.788 34.7812C142.503 35.0834 142.15 35.2345 141.731 35.2345Z" fill="white"/>
<path d="M25.3821 36.4988C21.9388 35.2199 18.3972 35.0232 15.1506 35.9086C12.8879 36.4989 10.7236 37.6794 8.75596 39.1551L7.37862 40.3357L6.98511 40.7292L7.87052 41.5162C7.9689 41.5162 7.96891 41.6146 8.06729 41.713C8.26405 41.9097 8.46082 42.0081 8.75596 42.2049L9.34621 42.5984L9.9365 42.1065C10.0349 42.0081 10.2316 41.8114 10.4284 41.713C12.1992 40.2373 14.1668 39.2535 16.2328 38.7616C18.889 38.0729 21.742 38.1713 24.5951 39.2535C26.9562 40.1389 31.7768 41.2211 37.5812 38.7616L37.7779 38.6632L38.0731 38.3681C38.0731 38.2697 38.1715 38.2697 38.2698 38.1713C38.7617 37.581 39.2536 36.9908 39.6472 36.3021L41.6147 33.2523L38.4666 35.0231C33.8427 37.581 29.6124 38.0729 25.3821 36.4988Z" fill="url(#paint0_linear_25402_2703)"/>
<path d="M11.904 25.8738C14.5602 25.1852 17.4132 25.2836 20.2663 26.3657C23.4144 27.5463 31.4815 29.2188 40.5325 21.0532L42.0082 19.5776L42.1065 19.4792L42.5001 19.0857L42.3033 18.5938C42.2049 18.2002 42.0081 17.7083 41.8114 17.2165L41.3195 15.8391L40.3357 16.8229C40.2373 17.0197 40.0406 17.118 39.8438 17.3148C35.5151 21.7419 28.8253 26.2674 21.1517 23.5127C17.7084 22.2338 14.1667 22.037 10.9202 22.9225C7.77204 23.8079 5.01741 25.4803 2.45954 27.8414V27.7431L0.983842 29.3171C0.983842 29.4155 0.88548 29.4155 0.7871 29.5139L0.491943 29.809L0.590329 30.2025C0.688709 30.6944 0.885462 31.1863 0.983842 31.6782L1.57413 33.2523L2.55792 31.9734C2.6563 31.7766 2.85305 31.6783 2.95143 31.4815C5.01741 29.6123 7.87042 26.956 11.904 25.8738Z" fill="url(#paint1_linear_25402_2703)"/>
<path d="M2.36114 24.1031C4.62387 21.7419 7.18172 20.2662 9.93635 19.4792C12.5926 18.7905 15.4456 18.8889 18.2986 19.9711C27.1528 23.2176 34.8264 17.9051 38.1713 15.0521L39.4502 13.7732L39.9421 13.3797L39.5486 12.7894C39.2535 12.4943 39.0567 12.1007 38.7616 11.7072L38.1713 10.9202L37.4826 11.6088C37.3843 11.7072 37.1875 11.904 37.0891 12.0023C32.9572 15.9375 26.5625 19.9711 19.2824 17.2165C15.8391 15.9376 12.2975 15.7408 9.05094 16.6262C6.98497 17.2165 5.01737 18.2003 3.04977 19.4792L0.983796 21.1517C0.787037 21.3484 0.688657 21.4468 0.491898 21.6436L0.295157 21.8403V22.1355C0.196777 22.8241 0.196765 23.5128 0.0983856 24.1031L0 26.5626L1.67247 24.7917C1.86922 24.5949 2.066 24.2998 2.36114 24.1031Z" fill="url(#paint2_linear_25402_2703)"/>
<path d="M28.2351 43.1888L28.0383 43.779L28.2351 43.1888C27.9399 43.0904 27.7432 42.992 27.4481 42.8936C24.0048 41.6147 20.4631 41.4179 17.2166 42.3033C16.5279 42.5001 15.8393 42.6968 15.1506 42.992L12.7895 44.0742L12.1992 44.3693L14.1668 45.058C14.7571 45.2547 15.3474 45.4515 15.9376 45.6482L16.2328 45.7466L16.5279 45.6482C16.8231 45.5499 17.1182 45.3531 17.4133 45.3531C17.6101 45.3531 17.8069 45.2547 18.0036 45.1563C20.3647 44.5661 22.9226 44.5661 25.6772 45.4515C25.9723 45.5499 26.1691 45.6482 26.4643 45.7466L26.9562 45.9434L27.2513 45.845C27.9399 45.6482 28.727 45.4515 29.3173 45.1563L32.0719 44.1725L29.2189 43.4839C28.9237 43.3855 28.5302 43.2871 28.2351 43.1888Z" fill="url(#paint3_linear_25402_2703)"/>
<path d="M43.2871 22.8241L41.8114 24.2998C41.6146 24.4966 41.4179 24.6933 41.2211 24.8901C37.1876 28.7269 30.6945 32.8588 23.4144 30.1042C19.9711 28.8252 16.4295 28.6285 13.1829 29.5139C10.1332 30.3993 7.37851 31.9734 4.91902 34.3345L3.64009 35.7118L3.24658 36.2037L3.64009 36.794C3.93523 37.1875 4.132 37.4827 4.32876 37.8762L4.91902 38.7616L5.60769 37.8762C5.70607 37.7778 5.90282 37.581 6.0012 37.4827C8.36231 34.9248 10.9202 33.3507 13.8716 32.5637C16.5278 31.875 19.3808 31.9734 22.2338 33.0556C24.6933 33.941 27.2512 34.2362 29.8091 33.941C34.3345 33.4491 38.86 30.8912 42.2049 28.0382C42.4017 27.8415 42.5984 27.7431 42.7952 27.5463L43.0903 27.2512V26.9561C43.0903 26.3658 43.1887 25.6771 43.1887 25.0868L43.2871 22.8241Z" fill="url(#paint4_linear_25402_2703)"/>
<path d="M5.90292 13.7732L5.60779 13.1829L5.90292 13.7732C6.4932 13.478 7.18188 13.2813 7.77216 13.0845C10.4284 12.3958 13.2814 12.4942 16.1344 13.5764C18.0036 14.2651 19.8728 14.5602 21.9388 14.5602C26.0708 14.5602 30.2027 13.0845 34.0395 10.2315L35.5152 9.05093L36.0071 8.65742L35.1217 7.96875C34.8265 7.67361 34.433 7.37848 34.0395 7.18172L33.4492 6.78821L32.9573 7.18172C32.7606 7.2801 32.6622 7.47685 32.4654 7.57523C27.2513 11.5104 22.0372 12.5926 17.1182 10.7234C13.5766 9.44446 10.0349 9.14932 6.4932 10.2315C6.19806 10.3299 5.90293 10.4282 5.50941 10.5266L5.31267 10.625L5.01751 10.9201C5.01751 11.0185 4.91915 11.0185 4.82077 11.1169C4.42725 11.7072 3.93533 12.1991 3.54181 12.7894L1.67261 15.6424L4.72238 14.0683C5.21428 14.0683 5.60778 13.8715 5.90292 13.7732Z" fill="url(#paint5_linear_25402_2703)"/>
<path d="M13.9699 7.08331L14.2651 7.1817C15.544 7.67359 17.5116 8.16549 19.9711 8.16549C22.529 8.16549 24.9885 7.57521 27.448 6.59141L30.4977 5.11572L28.4318 4.42708C27.8415 4.23032 27.2512 4.03356 26.5625 3.93518H26.2674L25.9723 4.03354C25.6771 4.13192 25.382 4.3287 25.0868 4.42708C22.1354 5.50925 19.1841 5.70601 16.331 4.91898C16.0359 4.8206 15.7408 4.7222 15.4456 4.62382L15.1505 4.52543L14.8553 4.62382C14.2651 4.82058 13.6748 5.01735 13.0845 5.31249L10.8218 6.29629L13.1829 6.98492C13.3797 6.88655 13.6748 6.98493 13.9699 7.08331Z" fill="url(#paint6_linear_25402_2703)"/>
<defs>
<linearGradient id="paint0_linear_25402_2703" x1="46.6518" y1="31.1511" x2="38.6812" y2="57.9124" gradientUnits="userSpaceOnUse">
<stop stop-color="#F0DA35"/>
<stop offset="1" stop-color="#E8C179"/>
</linearGradient>
<linearGradient id="paint1_linear_25402_2703" x1="48.6103" y1="11.9242" x2="28.0753" y2="56.814" gradientUnits="userSpaceOnUse">
<stop stop-color="#F0DA35"/>
<stop offset="1" stop-color="#E8C179"/>
</linearGradient>
<linearGradient id="paint2_linear_25402_2703" x1="45.7519" y1="7.40338" x2="27.9939" y2="48.4919" gradientUnits="userSpaceOnUse">
<stop stop-color="#F0DA35"/>
<stop offset="1" stop-color="#E8C179"/>
</linearGradient>
<linearGradient id="paint3_linear_25402_2703" x1="34.9625" y1="40.8195" x2="32.088" y2="53.1929" gradientUnits="userSpaceOnUse">
<stop stop-color="#F0DA35"/>
<stop offset="1" stop-color="#E8C179"/>
</linearGradient>
<linearGradient id="paint4_linear_25402_2703" x1="49.1111" y1="19.241" x2="30.817" y2="60.8884" gradientUnits="userSpaceOnUse">
<stop stop-color="#F0DA35"/>
<stop offset="1" stop-color="#E8C179"/>
</linearGradient>
<linearGradient id="paint5_linear_25402_2703" x1="41.0012" y1="4.79758" x2="33.7345" y2="30.3314" gradientUnits="userSpaceOnUse">
<stop stop-color="#F0DA35"/>
<stop offset="1" stop-color="#E8C179"/>
</linearGradient>
<linearGradient id="paint6_linear_25402_2703" x1="33.3597" y1="2.9841" x2="30.3974" y2="15.4688" gradientUnits="userSpaceOnUse">
<stop stop-color="#F0DA35"/>
<stop offset="1" stop-color="#E8C179"/>
</linearGradient>
</defs>
</svg>
